<mxfile host="app.diagrams.net" modified="2023-11-15T20:23:04.963Z" agent="Mozilla/5.0 (Windows NT 10.0; Win64; x64) AppleWebKit/537.36 (KHTML, like Gecko) Chrome/112.0.0.0 Safari/537.36" etag="LVDN7f_UB-I2weL-FALv" version="22.1.0" type="github" pages="2">
  <diagram name="PÃ¡gina-1" id="1YzMn_n8AubxweOMWq0l">
    <mxGraphModel dx="2012" dy="481" grid="1" gridSize="10" guides="1" tooltips="1" connect="1" arrows="1" fold="1" page="1" pageScale="1" pageWidth="827" pageHeight="1169" math="0" shadow="0">
      <root>
        <mxCell id="0" />
        <mxCell id="1" parent="0" />
        <mxCell id="y-b941aZfHmB1AVWtn2H-1" value="Centro Autizador&lt;br&gt;&lt;br&gt;Servidor PO test&amp;nbsp;&lt;br&gt;Spartan&lt;br&gt;UIOTest&lt;br&gt;" style="rounded=1;whiteSpace=wrap;html=1;" vertex="1" parent="1">
          <mxGeometry x="70" y="150" width="120" height="110" as="geometry" />
        </mxCell>
        <mxCell id="y-b941aZfHmB1AVWtn2H-4" style="edgeStyle=orthogonalEdgeStyle;rounded=0;orthogonalLoop=1;jettySize=auto;html=1;entryX=1;entryY=0.5;entryDx=0;entryDy=0;" edge="1" parent="1" source="y-b941aZfHmB1AVWtn2H-2" target="y-b941aZfHmB1AVWtn2H-1">
          <mxGeometry relative="1" as="geometry" />
        </mxCell>
        <mxCell id="y-b941aZfHmB1AVWtn2H-2" value="IBM10 de test&amp;nbsp;&lt;br&gt;UIO" style="rounded=0;whiteSpace=wrap;html=1;" vertex="1" parent="1">
          <mxGeometry x="540" y="70" width="120" height="60" as="geometry" />
        </mxCell>
        <mxCell id="y-b941aZfHmB1AVWtn2H-5" value="&lt;span style=&quot;color: rgb(255, 255, 255); font-family: Inter, system-ui, -apple-system, BlinkMacSystemFont, &amp;quot;Segoe UI&amp;quot;, Roboto, Oxygen, Ubuntu, Cantarell, &amp;quot;Fira Sans&amp;quot;, &amp;quot;Droid Sans&amp;quot;, Helvetica, Arial, sans-serif; font-size: 12px; font-style: normal; font-variant-ligatures: normal; font-variant-caps: normal; font-weight: 400; letter-spacing: normal; orphans: 2; text-align: left; text-indent: 0px; text-transform: none; widows: 2; word-spacing: 0px; -webkit-text-stroke-width: 0px; background-color: rgb(33, 33, 33); text-decoration-thickness: initial; text-decoration-style: initial; text-decoration-color: initial; float: none; display: inline !important;&quot;&gt;http://POECWWA034/ScoreCentroAutorizador/services/sendTransaction&lt;/span&gt;" style="text;whiteSpace=wrap;html=1;fillColor=#f8cecc;strokeColor=#b85450;" vertex="1" parent="1">
          <mxGeometry x="-130" y="10" width="410" height="40" as="geometry" />
        </mxCell>
        <mxCell id="y-b941aZfHmB1AVWtn2H-6" value="" style="shape=image;verticalLabelPosition=bottom;labelBackgroundColor=default;verticalAlign=top;aspect=fixed;imageAspect=0;image=data:image/png,iVBORw0KGgoAAAANSUhEUgAAAwwAAAG0CAYAAACfeaBKAAAgAElEQVR4nOzdfXAU1503+i/eZA0DmBelSSCbvryWewNrUZaQZrwJkmI/Xo1iAltmEMtNGIQrZd42rkJZS3jREoJrLRzgFhQ22utrhEjKK0WkrjFEUrwBZCfLSLZJWSzkNsECuxOjBwYQmDCAbeD+oZxDt6Zbmp43jeD7qXVtGPWcOX36dPf59XnpITk5ObfxF5cvXwYAPPDAAxg9ejSuXbuGGzdugIgomYYMGTLQWSAiIqIYfaH3Bw888ABGjhyJK1eu4NatW7yxExERERHdw+4z/+OLX/wixowZg0gkglu3bg1UnoiIiIiIKENYAoYvfelLuHbtGoMFIiIiIiIC0CtguO+++zhngYiIiIiIJEvA8Pnnnw9UPoiIiIiIKANZAoabN28OVD6IiIiIiCgDsYeBiIiIiIgcWQKG27dvO21HRERERET3oKj3MCTqk08+wZUrV3D9+nV89tlnyU6eiMjir//6rzF06FCMHDkSI0eOHOjsEBER3XWSFjBcv34dXV1dcpWlIUOG8KVvRJRyn332GT799FN88sknGDZsGL785S9j6NChA50tIiKiu0bCAcPt27dx/vx5dHd34/bt2wwSiCjtxHXn+vXr+Oijj/ClL30JY8eO5fWIiIgoCe7rfxNnIli4cOEC5z8QUcYIh8O4ePEir0tERERJkFDAcP36dXR3d/MpHhFllCFDhuD8+fN8ESUREVESxB0wfP755zh79iyf4BFRxjp37tygfr/MAw88MNBZICIiii9guH37Nv785z/z6R0RZbRr167h6tWrfLBBRESUgLgDhqtXryY7L0RESffnP/+ZAQMREVEC4g4Yrl+/nuy8EBEl3Y0bNxgwEBERJcB1wHD79m3cvn17UI8LJqJ7x82bN+V1i4iIiNyLe9Izb75ENBjw4QYREVFiElpWlYiIiIiI7m4Jv+k5Fo/9r3/A/7l4KW7duuXqe5c++TOGe4YifOEywhcu4faNS9j2f/2E730gIiIiIkqTtAQMf/M3X8O4L40C8JehTD3/B+A2bt+63fO/b9/CrdvAfUOGAENu49YtYPQDHty6eROjRwzF1P9jHDpPfZiO7BIRERER0V+kJWD4whe+gC2bfoLbt2/j1q1b+Pzzz3Hz5k3cvHlT/u/PPvsMn3/+ufz3559/juvXr+Pq1au4dOkSPv/8cyz6bjDledV1Hd3d3fD5fCn/rXuBqqr4yU9+gq1bt+Lw4cMDnR0aIKqqwjCMhLfJZD/+8Y8xYsQIrF69eqCzQkRElFTpmcNgmiA9bdo0PPjgg5Y//+3f/m1asvHII48gFArhypUruHLlCj766CMcPHhQ/n3fvn0AgNLS0rh/Y/ny5bhy5QoaGhoSzu/777+PK1euJJxObw0NDbhy5QqWL18e0/aJ7NNPfvITlJSU4Jlnnon5O6qquv6du4XbY+PGlStX8P777yc93Vi88cYb2LRpk+PfVVXFm2++ibVr16YxV8k1YsSIgc4CERFRSqQlYBDhwujRo/HlL38ZX/nKVzBmzBgEAgEAwJIlS9KRDfznf/4nJk+ejNbWVjQ1NeHMmTMYO3YsgJ4GSyQSwdKlSwf1U85M8y//8i9oamrC1q1b+932ySefxJUrV/Dtb387DTmjdPrOd76DJ554wjZoEMHC/v378fzzzw9A7oiIiKgvaRmSNOS+nknK9913H27cuIFQKISbN2+isbERN2/exN69e/Hzn/8cxcXFOH/+PG7evIlbt27h008/lcOYErV8+XKMHTsWTU1Ntj0IhmEk1LNA9tyU67hx41KcGxoohmHg8ccfx5tvvgkA+OEPfwjAGiyIzyh+Ho8Hf/3Xf41Lly45bjN69Gh8+umniEQiacwZERENZmldVvXWrVu4//778c1vfhMAUFhYiP/+7//GT37yE/zzP/8zPvnkE9y4cQPDhg3D8OHDMWbMGIwdOxbDhw9PWh48Ho/j33oPARL/3rRpEz766CM5pENVVezbt08ObRJDmXr/zsGDBy3bmIfaqKqKgwcP4uzZs3J4VCxDfhoaGmRezp49i4MHD/Y7hOeVV16Jyn9vTz75pNzfWNPtnS/zvoihJb2HM4n9FuWi6zoeeeQRvP/++3jxxRcBAC+++KJlWE7v74RCITz55JPyt8V+7du3T+ZBlLd5n8xPt+3Kv68hM2445SeW8rKzdu1a6LruuP9Az/EzD7fTdb3PNFVVxUcffYSzZ8/iySefTOpQOiciaBA9DQwWkq+wsBBvvPEGZs6cafv3mTNn4o033kBhYWGac0ZERINZWgKGW7d6BiVdvHgRv/3tb/HGG2/gv/7rv/Bv//Zvcpt33nkHFy9exPjx45GTk2P5b/z48Qnn4Ze//CUikQgKCwuh6zpeeeWVmBvEgUAAbW1t+PjjjzFlyhS8++67mDZtGpqammSavRtnhYWFskfj4sWLKCwsxEsvvST//uabb2LWrFk4fvw4mpqa0N3djZKSEtvgQ9i3bx9KSkrQ3d2NpqYmHD9+HLNmzZJPbe1s2rQJCxcuBACZlxkzZli2eeSRR/Dyyy9j6NChePbZZ/HTn/4U06dPx65du2Iqn02bNqGkpARvvPEGnn32WRw9ehQXLlyw3XbXrl2YPn06Nm7ciI0bN+LMmTP405/+hA0bNqC+vh4AUF9fj2effRa//OUvZVmZvzNmzBhs2bLFku6UKVPwta99Da2trfKYvPvuu7h27RpaW1vh8Xjw9NNPy2O+ePFijB07Fj/96U/x7LPPoru7G08//XRUQzxe5vyI4y8CEjfltXbtWlRUVGDYsGFoampCa2srJk+ejJdffhmPPPIIgDvHzzzcbtiwYaioqHAMGhoaGuT+/+IXv0jKPsfCHDT85je/GbTBwo9//GNs2bLF8t/EiRMxceLEqM9719VU+tWvfoVQKIRt27ZFBQ0zZ87Etm3bEAqF8Ktf/SpteSIiosEvLUOSAKC7uxvvv/8+PvnkE9u/nz17FgDwhz/8AX/4wx+S/vuGYWDFihWoqqrClClTsHDhQnznO9/BT3/6034bLP/0T/+Ew4cP45FHHpE32scffxyGYcgG3d/93d9ZvnPs2DG50pKqqnj33XeRl5cHoKfB+NWvfjVqeNRHH32EwsJC29ViHnnkERQWFqKzs9PSEDh48CBmzZqFtWvX2o7/DgQCiEQi+OY3vynTFN8Rnn/+eXg8HsyaNUtu8/DDD1u26cvXvvY1AEBLSwt+8YtfYMeOHY7bjh07FtevX8fu3bthGIbMs2EYGDduHBYuXIjf/e53Mg1RVhs3bpTbjh49Gk8//TSWL18ut7t48aIsl02bNuHpp59GV1eXPAb79u1DYWEhvv3tb2PHjh14/vnno8rrxRdfxIIFC5LSgDbnZ/ny5XjxxRfx93//967L6/vf/37U8RP7t2bNGsyZM0cev2effVamJerqd7/73aj9fOWVVzBjxgw0NTUNysZ6JnA7wXn8+PHo6upKUW7uuHnzJp577jn8+7//O7Zt24Yf/OAHeP/99y3BwnPPPce3XxMRkStp6WH47NNPEQqFHIOFdPnFL36BmTNn4h/+4R/Q1NQEADE9VRbLgYr/39XVJRtvTk+GxdNxoKcx3NXVJYdDiQZja2ur5TttbW0AYDvpNzs7GwBw4sQJy+eNjY0AEBWwCGPHjrXkFwDC4XDUNgBw/PhxOaQl1mDBvB+7du2SvTdOTpw4gbFjx+L48eMIhUL9roojyqqiokLm7emnn47arru7W/7vzs5O+VuC3XjtTZs2IRQKQdd1ORzKiVi9SPzX39Adc35EI37YsGEA3JWX3fETjXxRNuL4mQOPw4cPo7OzE1/96lct6Y0ZMwYLFy7EsWPHBmTOjnkY0je/+U3HidCZbvXq1VH/ffjhh/jwww9t/5aOYEEQQYPoaVi0aBGDBSIiSkhaehg++/xzfPbZZ+n4qZgcPnwYhw8fxiuvvIKFCxeiuLg46cMynAKJTPbss8/G9b0dO3ago6MDa9aswUMPPYSFCxfiK1/5CubMmRO1bWlpKZYvX45AIIDp06ejoqICAPpdHae+vh6/+93vLJ+ZgzK3RI/Du+++i2PHjgGAHLplZ+vWrZYAr6OjI+7fdlNeqRCJRDBhwoS0v/fAbs6C3URoSpy5p2H16tU4cOAAgwUiIopb2oYkZYLeDaQHHngAAHD58uWk/1YgELAMD5kyZQo+/vhjAMAf//hHAD3zHMxPhb1eLyKRiO0QFdFA7f0OC7E07c9//nPbfEQiEYwfP96y773nbly8eBFTpkxBR0dH3C9XO3z4sGzw6rouh1/Z2bFjB3bs2AFVVXH8+HF8+9vfdgwYRFldvny5z6E7buXl5aGzsxPf+ta3AKDfng4RZCZLrOUl5vWYj594Iv/uu+/KbaZMmWIZoiXqnAiGhO7ubuzZswcVFRW2k2MVRUnaPpo5TXB2Wj2JEieChi9/+cs4e/YsgwUiIorbPRMwNDQ0oLCwEMePH0c4HIaiKJg1axYuXryIbdu2Jf33Zs2ahYMHDyIcDsPr9QIAfvaznwEAtm3bhieeeAIlJSVymwcffFBOkrZz+PBhvPvuu5g1axbef/99nDhxQu5DZ2enYw/JO++8g8LCQvzmN79BW1sbHnzwQUyZMsWyTWNjI2bNmoWdO3fiZz/7GS5cuICSkhJEIpGYhq1s2rQJDz/8MBobG5GVlYUxY8bg1KlTttvu27cPkUgEra2tePjhhwEgqlG7ePFiZGVl4fnnn8e2bdvwve99D9/73vcA9Aw3evjhhzFjxoyE3sbd3d2N8ePHy0Dhu9/9btxpueWmvBobG/H000/L4+fxeJCXl4dIJIINGzYAAF566SW8/PLL+NGPfiSPm6hzu3fvjkrz+eefR35+PgoLC3Hw4EF861vfwo4dO/CjH/0Is2bNkhPvk9nj8cYbbzhOcDYHDZcuXeK7GJLo5s2bOHPmzEBng4iIBrl7JmBobW2FoiiYPn06PB4PIpEIjh07hvLy8pQMyzh27BjGjh0rg5L/+I//sEzwffzxx+WKQR6PBxcvXkR9fT2+//3vO6b5rW99Cw0NDfB6vbJh2NraipUrVzp+Z86cOdi3bx/y8vJQUlKCd999F3/84x8tyyqKp9LPPPOMHCL08ccfY//+/THt66VLlzBhwgQ5D6Cv8fGiMWvOv9jnHTt2oKSkBIWFhZgxYwYOHjyIw4cP4x//8R+xefNmOXfh4sWLaGtrS2hIzb/+679iy5YtqKiowMcff4zf/OY3fQ5JSiY35fXDH/4Qly5dwne/+12UlJTI7c31VgSLP/zhD+Vx/fjjjy2ToHubM2cOdF3HrFmzsGnTJvzwhz/Ej370I1RWVqKwsFD2hiXLihUr+uyhEecEERERZZ4hOTk5t/vf7I7bt2/j5s2bcmJpLBYu+h7+n/878eEki74bxN7/dw+GDBmScFpEdO+YMmUK/uqv/iql145UrIT0wAMPDPhiEURERGnpYTh04L/w2P/6Bwy5r+9FmYYMGYK/uu8+3AZw6+ZN9I5k9P/veMrySESUiHSuhERERJROaQkYzp793zh79n/j9m1XnRlRhgwZwt4FIiIiIqI0SuscBjb2iYiIiIgGl7S8uI2IiIiIiAYnBgxEREREROSIAQMRERERETliwEBERERERI4YMBARERERkSPXAcPt27fx2WefpSIvREQpcfPmzYSXdR4IfGkbERFlgrgChk8//TQVeSEiSolPP/10UAYMREREmcBVwHDr1i3cunULly9fTlV+iIiS7tKlS/L6RURERO7c99lnn0H85+T27dvyZnvp0iVcu3YtjVkkIkpMJBLB5cuXGTQQERHFYciIESNkP/3kyZNtN7p58yY+/fRTBgtENKgNGzYMo0ePxv3334/77uvpYOWcrPh98YtfHOgsEBFRGlgCBiIiIiIiIjMuq0pERERERI4YMBARERERkSMGDERERERE5IgBAxEREREROWLAQEREREREjhgwEBERERGRIwYMRERERETkiAEDERERERE5YsBARERERESOGDAQEREREZEjBgxEREREROSIAQMRERERETn6wkBngIicFRcXo7KyMupzXdexbNmyAchR5iouLkZ2djY6OjrQ0tIy0NkhGtRaW1ttPy8sLExzTogoEwxYwBAIBPDoo4/iwIEDaGxsHKhsZCxFUVBeXo4pU6ZAURQAQDgcRiAQGOCcxSadx1fc2O7mG1kkEoFhGPLfXV1dA5ib1Iun/jz11FNQFAV79+5Nce6I7n66rlv+rWnaAOWEiDJB3AFDTU2NvIDs2bMH27dvBwBs3boV2dnZAIDm5mZs3LjR9vtlZWXweDxQVZUBQy+KomDz5s1QVRWRSEReuO0aiT6fD6NGjcKRI0cQDoeT8vvi2FZXVzs+qa2oqIDf73c8xjy+yWUYhmOPwqpVqzB//nx0dHTgmWeesd2mqakJHo8Hy5Yti2oIZCK39ScQCEBRFLS1tQ3Y/imKgieeeAJFRUVQVRUA+jyHgJ58z5kzR27f0dGB+vp6hEKhpOQplen7fD7MnTsXDz30EDwej0y/ubnZdp/dbt/7u48//jjGjx8PTdNsrzuapmHJkiWWhyyGYeDQoUOora2NSjOe4+WG2/1VFAU5OTm4fPmyPD7iOmvXoxhP+r0fQhmGgePHj9tew3v/nlOPAxHdG5LSwzBt2jTb/90XwzCgaZrlqSn1WLFiBVRVhWEYKC8v7zMQCAaD/Tbu3bp06RIAYOrUqY7bTJo0CQBw7tw527/z+KbPr3/9a8yfP9/x3PP5fPB4PAiHw4MiWADc159HH30UALBr165UZsuRz+fDCy+84Oo7ojEI9DzNzcrKQnZ2NrKzs7FmzZqEG/WpTL+srAzBYBAA5EMNc/oALNcjt9sLiqJgw4YNlqfbhmFEXXfKysoQCARkw1mkr6oqgsEghg8fLh9qAfEdLzfi2d+lS5fC7/ejra2t32PjNn3zQyigp3xEQK6qKsaMGWM79JGISEg4YAiHw7KhYm6YiCcYTpYtW4bi4mKONbYxY8YMAMC+ffuS1mvgRnd3NwBg+PDh/W7rNDSGxzd9dF2X55zP54tqbOTk5AAAjh07NhDZi4vb+vP666/j8uXLAxYQjRo1CpFIBEePHsXevXtlIO9E0zTZmH/ppZdkL0p1dTW8Xi+CwWBCDfpUp//ggw8CsPYum9P3+/2WY+d2e8DayA2Hw2hqasL+/fsdr4kejweHDh3Cyy+/LLcRQVNeXp5lW7fHy6149nfChAkA7lx/k5n+E088IctxxYoVsnwCgQBWrlwJr9cLTdMGzQMFIkq/hFdJeu+99+DxeODz+TB79mz5WSzYmLQngq2BGspz9epVy781TUNFRQVWrVolPxNP8i5fvuyYDo9v+ohgQAQHZiIA/f3vf5/WPCXKTf1paWlJ2jCeeBw5cgQlJSWorKyMKR+PPfYYgJ4hJObzfPPmzYhEItA0DT6fL+78pDr9yspKVFdXWxqrwJ1hK717u9xuDwDl5eVQVRW6rmPFihWora11DBZqa2uxbNkyrF+/3rJNR0cHAOBLX/qSZXu3x8utePZ3zJgxljwnM/1x48YB6LlOmMunsbFR/nvixIn9/i4R3bsS7mHo6OiA3+9HTk4OJk2a1OfFzjzvQehrngPQs/KJ3+/HtGnT+hynaU7bMAwsXrwY69atQ35+PjweDwzDwI4dO6JuDhUVFcjNzZWNdF3XHSdaKoqCpUuXYtKkSVH74bRqjZv0Y2W3ck5lZWXUZ/FOAv7ggw8A3Bl2NHHiRPm0UtygRNe2uTzdHF+xD83NzTh37hxKSkqgKAoikQja29uxfv36qO/4fD4sXLhQdrl3dHTg+eef73NfYil/kRdxDHv/G7CfWB1PfUiV3//+9ygqKrJtiIi82Y1B7l0+TmO+4zm/3JZPPNeHWM+veOqbG257AsVxOnnyZFQ6YjhWTk5O3I3ZVKcP9B3QiWt1vNtrmgav14tIJIKqqqqYytfu6fjIkSMB2JdDqrktH3FNPXLkSNLTF/fp8ePHWz5XFEWeB7H+LhHdm5Iyh6GjowMzZsyApmnYs2eP41AW8/CVrKysfocticmcwJ0bnXmc5vjx42XDRqStaRpUVUVZWRmKioosY1lXr15tWWVIdN8Cd8Z0apoGTdMwYsSIqEaTeQyoYRiIRCK2+xZv+rEyD71QVVU22Mz5SaapU6fKIS99dVu7Pb5AT1Di9/thGAZ0XYemaSgqKgIASyPO5/OhqqoKHo9Hrhg0YcIErF271jHtWMv/ww8/jNpf4M4NvLi4WKZh5rY+pFJraytWrlwpgynBnPfejaTe5QP0nD/BYBDjxo2zNNTjOb/clo/b+hPP+RVrfUu1+++/H0BPcK4oCkpLS3H27Fk0Njbi9OnT0DQtpiGBA5W+E9FAj3Voi9P2oofk6NGjmDp1KtauXYtp06bh6tWr6OzsxObNm/tt9Pt8PpSVlSESiaC+vt7trqSE0/6K8zQcDicUzDil39LSgvz8fBQVFaGmpganT58GAOTm5iISiVh6GoiI7CQlYDh58qRs2B85ckQOTerNfEM2T8izo2maTLOurs5y81+1ahXy8vIsF0WRtniKOnPmTDmxT1EUNDY2Whq8Pp9PNjbMEwBFkBIIBCy/WVxcLFctCgaDMd2sYk3f5/PJCWxmNTU1ln/X1dUhFArJ/8Q2mqbhtddeS9oQoJaWFlRWVsqnVMOHD8eFCxegKAomTpwou85735TcHF9B0zTLGGvxJDg/P9+y3cKFC+HxeGSvgij/6upq23TdlL/Yj6ysLLm/hmHIxq5w48YN+b/d1odUExOaNU2zjP0XAUTv+QuBQABerxfhcBhVVVWyDERgVlBQgJ07d8r9cnt+xVM+buqP2/NXiLW+pVNpaam81v3pT38adOmbicnnsc6Xcdr+b/7mbwAA165dQ1VVFa5evYrz589DVVUoioKXX37ZMhZf0DQNjz32GKZNmybfybFjx46MGZvvtL/iIcWZM2dSkj7Qc361t7fjqaeekj15uq5bzn8iIidJedOz6MoMh8NJGw86d+5cAEBbW1vUjX/79u0oLy/v87dOnjwp/25eHUaM0xRBTUdHhyWd7du3IxKJwOPxyKc+vRUWFvb79NNN+qNGjZJPRs1DMsyfaZqGUaNG9fmbySYazJMmTcLp06dhGAamTp2a1HwYhmEZPiIaur271MUQi/r6eksjwWlVHLfHNxKJyGM6adIkHD9+HEBPg1J04zvdzGOpD+kgGgnmXobp06cDiB7mIOY6NDU1WRoLoVAIR48ehcfjsZ0PIfR3fpmlonziPX9jrW/plIon/elMXyguLoamaYhEImhoaEho+9GjRwPomX+zbds2BAIBLF68GGvWrJHnamlpaVSaPp8P8+fPl+fAhAkT5L1koPW1vyJASiRg6K/8161bh8rKSly7dg3Nzc04dOgQsrKysGXLFpSVlcX9u0R0b0hKD0MoFEr6S7P6WzGivyeWYhy+0Hu8tBifb3eBFmN8zeM9W1paUFhYCK/Xi5UrV2LlypUwDANnzpxBa2tr1NN9N+m3tLRYvp8JLyKze8IeiUQsjQ/RrZ2IWIdRiQZd7yDR6cmY2+MrPhO/derUKRiGgZEjR8oJg+alHN3Wh3Q4cuQI5s+fL/ddURS5MkrvchMNsmAwaNu71Z/+zq9Ul4/b4yukatheInbu3ImrV6/i6tWrCIVCjj20mZo+0NNQ/8EPfgAAfU5Odrv9sWPHLHUlFArhrbfegt/vl41ss9raWtTW1kJRFBQWFmLOnDnw+/0YOnRoWoec9dbf/or7XSwTnuNJv6KiAkVFRVHvahG9NcFgEF1dXVyogogcDdibngejyspKuRqUmMipqiq8Xi8KCwvvqnWsRcPK5/NB0zS8/vrrGDp0qGyo3W3EcCOfzwdVVXHlyhV0d3dj8uTJcpve4+4zrT6EQiG5Ag5wJ+Ds7Ox0/E5bW5tjUN57bodbmVY+mUTUt6lTp6KlpcWy2o04x3qvVpZJ6ZuZ5xfV1dX1u6CDm+3b29ujPjt16hSAO0GvnXA4jMbGRrS2tqKxsRFFRUVoaGgYkKE3seyveDizaNEizJs3T34uhkmqqoqamhrbhRRiSV8c8+bmZsvn4XAY7733Hvx+P7KzsxkwEJGjjA0Yzpw5g+zs7JQ1UMXEP/Fkx0xcvO0mZprnDwB3xkB7vV7LGvjxph+vvl6yFg/x8jbzU7zr169bhm6IG3c69Z507bR2utvyF/VNpNfS0oLs7GxMmDBBTiC1W0Uk1vqQLkePHoXX60UgEMDXv/51AMCJEyeithPHt7u7u89ViBKVqvJJ9/mVbCdPnkR2drbtqlZuV8sZiPQF81yT3nPNEtle1E+7Rqyo17EcXzGJWMy/SnfAEMv+mpe37d2rK4gJ/fGkT0SUDEmZw5AKe/fuBXDnHQDJ9vbbbwPouSGZL9irVq2SK/HE8rTF6T0EyUq/P+KmmZeXl9Rx4uKps3jC3tLSgnPnzkFVVQwdOhQAcOXKlaT9Xn9EV/3y5cstny9ZssR2+3jLf9y4cbI7/9y5czJYAGJbirGv91KkgwgOvv71r2PKlCkAgP3790dtJ4a9FRQUpHX8crLKJ13nV6r8+te/BtCTf/PKUuvWrZMvv3QKpnw+H5qamrB7927Hcz7V6ft8PuzevVuuOLVmzZo+G6tutxf1uKCgwHJ8fT6fnKBu7n0Qy4P2tmrVKvl5spYNTXb5iCG9dv+JHgFd1y1DVN2WpwjA/H6/Jc8+nw8FBQUAEPX2bCIis7T1MJSVlVlWIhFdrbm5uXI1oK6uLjnOVNd11NXVIRgMwu/3o6CgAIZhyO9rmiYvoHarDImuXXOaZqFQCG1tbfB6vXjhhRfksoziCY/TOu7m5SHN2xuGYbkBu00/Xg0NDcjPz4eqqqirq5NllJWVhWb/z3oAACAASURBVFdffTXuRpMYrpCbmys/E8GJeBGYeciK2+PrVn19vVxOt6mpSS6x6zRJ0G35i3XKzfWsq6tLTiK0WwbRTX1Il/379yMYDFrej2AX6JiXWQwGgwgEAnK/PR4POjs75bGK5/xyWz5u60+6zq9Y9S4juyEmYpUzoOf61tzcDL/fj5UrV+LRRx+1LCX76quvOv7W7Nmz5b7m5OTYnuOpTn/27NlyH4cNG2Y7F6a9vV02Yt1uX1tbi6KiIqiqKo8vcKdHsa2tzZIvsRKUub6JJaeBnrI3nwduj1eqy8ctt+nv2rULDz30ELKzsy33CfO7Vdg7QUR9SVvAMG7cONsuVacnQ0DPTaOrq0u+uM38fTGxUdd1ucqQmVPXrlllZSUqKiowffp0yzJzr7/+etRNYPz48QiHw1Hp6rqO06dPY+fOnQmlHy9d17FhwwYsXLjQUkaRSESuyR0PMalVURR5cxEBgvklWUI8x9eNUCiE6upqzJs3T64apes66uvrMWbMGNvjHU/5ezweGRiZl5c1L6kKxFcf0kG8r0TkS6z2ZEcss2h3fpnnPcRzfrktn3jqTzrOr1jZlRFgLafeq4tt3LgR586dQ1FRkfyu3Uspe3v77bdRUFCA8+fP9/nUPNXpC07HyGlRhFi3Ly8vx4oVK+Q7foCe6/4777wT9Ybjs2fPymWFhUgk4ri/8RwvIdXl41Ys6eu6jtWrV2PJkiWYMmWKpTyPHz8+YNcrIho8howYMeL2QGeCiOyJJ/XiZXVCIr01RET96f0eoN6LKRDRvSVjJz0T0R1Okx6JiFKB1xsiMmMPAxEREREROcrYVZKIiIiIiGjgMWAgIiIiIiJHDBiIiIiIiMgRAwYiIiIiInLEgIGIiIiIiBwldVnV4uJiFBYWYvTo0UlZJ978hteGhoaot+0SEREREVFqJSVgUBQF5eXl8Hq9yUhOEutAa5qGoqIi1NXVZczr6wOBAB599FEcOHAAjY2NA52djCPqxJQpU+RbSMPhMAKBwADnjAYCz5fUaW1tBZDZL9QSeTTL5Py6MRjK3y3xwkhd17Fs2bKBzg5lsLux/pO9pAQMIliIRCJobGxMWqO+sLAQiqJg6dKl8Pv9CAaDAJCU9GtqamRAsmfPHmzfvh0AsHXrVmRnZwMAmpubsXHjRtvvl5WVwePxQFVVNoB6URQFmzdvhqqqiEQismeoq6sralufz4dRo0bhyJEjCIfDSc+LpmkoLS3FjBkzLIFLZ2cnNm/enJLfvJvFe7zu5vNFNK5ica/eVM29w3whGBHR4JNwwFBcXCyDhQ0bNiAUCiUjX1I4HMbGjRtx7tw5BINBBAIB7N+/P6kNvWnTptn+774YhgFN02AYRtLycbdYsWIFVFWFYRgoLy/v81gFg0Fomobq6mq0tLQkNR8+nw9VVVXweDwA7jRaNE2Doiioq6tDSUlJUn/zbhfv8bqbz5fLly9bGsQiMALAYZR/YX5KbdfbQEREmS3hgMHv9wMA3nrrraQHC2a1tbXIz8+XT4xFj0CiwuGwDBJ8Ph88Hg/C4bB8Gu1k2bJlKC4uTnoj924wY8YMAMC+ffsG7Am+oigyWGhra7P0Jmiahueeew6HDh0akLzdi+7m8yUUClmufeYeBw7nICKiu0HCqySJ4Tt79+5NODP9aW9vB3CnQZoM7733HjweD3w+H2bPni0/i8Xd2PhJBhFsDeTQkxUrVsDj8UDXdVRWVloCF13XsXjx4oyZD3Ov4PlCREQ0OCXUw1BcXAyg5yl9rF3vxcXF8Pv9mDZtmhwq0tHRgebm5n4bFKFQSA6JSJaOjg74/X7k5ORg0qRJ6OjocNzWPO9B6GueAxD7/prTNgwDixcvxrp165Cfnw+PxwPDMLBjx46oXpyKigrk5ubKRrqu644TS8V8kEmTJkXth9PkNjfpx8puzHdlZWXUZ4mM9xZB5YEDB1x9L9b9dXu8xD43Nzfj1KlTWLBgARRFQSQSwdGjRx3nU6QqP4B1vk4kEoFhGGhvb48KpOI9XvGcL7Hur7k8z507h5KSElme7e3tCa/Qli5uzi+fz4eFCxfKY9bR0YHnn38+aenHc31ItUzKfzLK3zAMHDp0KOocS9b13yl9IZ77b1lZWcznV6Ycr3SUZzLup8moD4qiyPJdtmxZVFts1apVmD9/flSeYr3+C/fi9YeskjLp+cKFCzFtJyou0BNkGIaBrKwsZGdnIzs7G+PHj+/zqW+qxgN3dHRgxowZ0DQNe/bswfDhw223M0/azcrK6nfYkpv9FWlrmgZVVVFWVoaioiLouo6srCyoqorVq1dbVhmqrq6WK1Ppug6PxwNN06BpGkaMGBFVlmIiMtBzEYpEIrb7Fm/6sTKP+VZVVV4AzflJVDy9HG72N57jBQCTJk2C3++HYRjQdR2apsHr9WLz5s1YvHhxWvNz8eJFeRyysrJk2vn5+ZaLc7zHy+35Ek99syvPoqIiAMj4oMHN/prn44ib+4QJE7B27dqkpA+4vz6kWiblPxnlD/Scn8FgEOPGjbMEzsm4/veVPhD//TcQCOD8+fP9nl+ZdLzSUZ6J3k/7St9N/sPhMNra2uD1evHYY49FtZPy8vIA3BmhIcR6/QfuzesPRUsoYBCRZiw0TZMXq97Lo65atQp5eXkDNkHw5MmTMm9HjhyRQ5N6M18gKyoq5PwNO273V6QtJgTOnDkTa9assTxBUBQFmqZB13X4fD55MortRNrz589HIBCw/GZxcbFctSgYDPY7t8BN+j6fT65gZSbeoyHU1dXJ8d4iPfEk5bXXXkvakBXR8+WG2/J0e7wETdMs9UHTNGzZskXeFMxlmur89L7hi7kdmqYhEAjIYCve4+XmfHG7v+Y8v/TSSzKvouchPz+/z7wNNLf7u3DhQng8HvlUT5y/1dXVSUnf7fUh1TIt/27LPxAIwOv1IhwOo6qqSp5zouFVUFCAnTt3ynTcnr9u04/3/tv7euV0fmXa8Up1ebrNf6rrw5EjR+D1emVwIIiAIxKJYP/+/bZlZN7W7voP3HvXH7KXtjc9z507FwDQ1tYWdePfvn07ysvLUzppui9HjhwB0PPUJVl5SHR/T548Kf9uHvI1ceJEAJBBTUdHhyWd7du3IxKJwOPxODacxXK1fXGT/qhRo+STA3NXovkzTdMwatSoPn9zICVSnkD/x0sIh8OW+qDrOpqamgD03BTSnR8zXddx/PhxAMDkyZMdt0uFePfXMAzLjU0EMWK4RaZyu79iYYb6+nrLzXTXrl1JSd8slutDqmVa/t2Wf05ODgCgqanJ0hAPhUI4evQoPB6P3MZOf+ev2/TjvR8ZhmHZ3un8yrTj1Vuyy9Mslvynuj40NjYiEolAVVXLPfixxx4DABw9erTfRnhf1/977fpD9hLqYRDj/2MxYcIEAEB3d7ft3wcyogyFQklfHz3R/f3ggw8s/+7dRThp0iQAwJkzZ6K+K5awHD9+vPyspaUFhYWF8Hq9WLlyJVauXAnDMHDmzBm0trZGPS12k35LS4vl+wP9IpeWlhY5vl5RlJjqltvy7K2/4yXYDd8T373//vvTmp+ysjK58piQzGFhbsS7vwOV30S53V/RQOvdqHPqlU319SHVMi3/bst/9OjRAHqWIbbrfe1Pf+ev2/TjvR/Fen5l2vHqLdnl6Tb/qa4PQM+Qo6KiIpSWlsreA9HjIB6Kmrm5/t9r1x+yl5Q5DFlZWclIpl984U9iKisr5WpQYmKRqqrwer0oLCyM+eVTg4FYGrewsPCue1FYMqxbt06ORTaPF83Kysr4p/OUGoP9+pCJ+W9ra3NspH/44YcZn34qDfbjFU/+U3m83nzzTRQVFckFP0R+wuFw1D0wE6//mVgfyCqhgEE8ybUbq93bmTNnkJ2dLSPPePh8PgCD42VIydjfvpw+fRqapsknR2Zi4pDdRCGnNeO9Xi98Pp/8W7zpx2vq1KlJSwsAOjs7oSgK5syZE1PAkK79tQuuxb7fuHEjbfkRNwvz+FKg/7kGvfOcLOmubwMt3v21mxOTzPRjvT4kQ1+9f5ma/1jL/9KlSwB6nuj3tSpYvNymP9jvR6kW7/GKNf+prg8iL4ZhQFVV+Hw+OcTp2LFjUdvGe/2/m64/5F7CcxjEMqRijKQT8Z4GTdNQUVER12+JiVZ2J0CmScb+9uXtt98G0DPxXARSQM+kIrGSQSzdeJcvX05p+v0RF428vLykjlvctWuXHNO5detW2wub+bN07a+iKCgrK7PkoaCgAEDPONV058fc1e3z+ZCbm9vn9qk6XunaX6BnP5uamrB79+4BGyvrdn/FdXb58uWWdJYsWZKU9J04XR8SIYKE0tJSx20yLf9uy18MyywoKLCc78niNv3Bfj9KtWQdL6f8p7o+CO+88w4A4PHHH5fDkRoaGhy3j/X6n8nXn0y4nt8rEh6S9Nvf/hbZ2dkoKCjA3r17HZ/+67qOuro6BINB+P1+FBQUwDAM+XdN0/oc815WVgZN0xCJRPo8AVJFjPcTxJPi3NxcuRpQV1eXHDvoZn/tVhlatGgR5s2bZ0nTLBQKyaXUXnjhBblsmYjendatN3c/mrc3DMMSvbtNP14NDQ3Iz8+Hqqqoq6uTZZSVlYVXX3017kairutobGxEIBBAdnY2ampqLPuuaRra2tpkN6eb/Y3neJnzFQgEUFRUhEgkIoOWcDhsqdepzo9YIlGUuUi7ubkZfr8ffr8fubm52LJli6VexHq83J4v6apvQM+EPJF2Tk7OgIyPdbu/9fX1cvnLpqYmuSSm3RjheNJ3e31IxHvvvQe/34/58+cjLy9PBva1tbWWlbkyKf9uy7+lpQX5+fkoKipCMBhEIBCQ54rH40FnZ6es+/Gcv27SBxK///Ynk45XOsrTbf5TXR+EhoYGzJ8/3/K+Brs2mdvrfyZffzLhen6vSDhgaGxsxDe+8Q1kZ2djw4YNfTbyamtr0dXVJV8cY37CKybC2FVu8/rRTU1NAzJBety4cbZPqRVFcYxqY91fscqQmThR+lJZWYmKigpMnz5dfl/Xdbz++utRx2D8+PEIh8NR6eq6jtOnT2Pnzp0JpR8vXdexYcMGLFy40FJGkUgEI0eOTCjt2tpahEIhlJaWYsqUKZZ913UdJ06csGwf6/7Ge7zM+VqwYIFcRs7pxW2pzE9VVRXKy8vx0EMPQdM0hMNh+VI10SWtKErUylaxHq94zpd01Deg5+lXQUEBzp8/bzsZMF3c7G8oFEJ1dTXmzZsnVx3TdR319fUYM2aM7fFO9fUhXhs3bsTQoUNl4An0XA9HjBiRsfmPp/zXr1+P9vZ22+t/Z2en/N/xXk9iTV+I9/4bq0w5Xukoz3jyn+r6APQ8eOro6JBL3h86dMh2O7fX/0y+/mTK9fxeMGTEiBG3E01EURRs2LDB0nhIxttWe78p9tChQxn/MiYiO+IJCt9YSURERINNUlZJCofDWLZsGcrKyjBz5kxMmDChzyUfY6VpGpfWIiIiIiIaQEkJGAS7N7EmYqDW8SciIiIioh5pe9MzERERERENPkmZw0BERERERHcn9jAQEREREZEjBgxEREREROSIAQMRERERETliwEBERERERI4YMBARERERkSMGDERERERE5IgBAxEREREROWLAQEREREREjhgwEBERERGRIwYMRERERETkiAEDERERERE5YsBARERERESOGDAQEREREZEjBgxEREREROSIAQMRERERETliwEBERERERI4YMBARERERkSMGDERERERE5IgBAxEREREROWLAQEREREREjhgwEBERERGRIwYMRERERETkiAEDERERERE5YsBARERERESOGDAQEREREZEjBgxEREREROSIAQMRERERETnKyIBB0zTU1NRg69atA52VjMTyISIiIqJ0yciAQdd1AEB2djYCgcAA5ybzJKt8ysrKUFNTg+Li4mRljQZIa2tr1H8DqaKiAq2traipqRnQfBAREVHiEg4YNE3DunXr0NjYKBsqjY2NqK6uhqIocad74MABAMCjjz4a0/Y1NTVobW1FRUWF49/upoax2/KxEwwGoWka5s2bl6xspZzP50NxcXFCdetupOu6/I+IiIgomRIKGHw+H7Zs2YKioiIoiiIbLIqiwOv1oq6uLu60GxsbEQ6HoWkafD5fItm8KyWjfAzDAABcunQpmVlLqWAwiMrKSuTk5Ax0VjLKsmXL5H9EREREyRR3wKAoCqqqquDxeNDW1oZAIGBptBiGgcbGxoQy19TUBACYO3duQuncrRItn/LyclRXV6OysjKZ2bonlJWVYdWqVezpICIiorte3AHDihUr4PF4oOs6KisrEQ6H5d90XcfixYtRW1ubUOb279+PSCQCr9cLTdMSSutulGj5hMNhtLS0pCBnd79x48Zh/vz5qKurQ3V1NesnERER3bW+EO8XZ8yYAeDOWHo3fD4fqqqqcP78eZSXl1uCDbNwOIy33noLfr8fc+fOTfr4bEVRsHTpUkyaNCmqwafruu3wjoqKCuTm5sony4Zh4NChQ1HBUU1NjUzTMAwsXrwY69atQ35+PjweDwzDwI4dOxAKheLOj9vyqaiogN/vj/rcaV/d5mfr1q3Izs4GAEQiERiGgfb2dtvAsbi4GJWVlWhubsa5c+dQUlICRVEQiUTQ3t6O9evXR21rVllZGfVZYWGh7T6bj5eu6zhw4IBt75eb/e3o6JDbeb1eeL3ePtN2s7/x5Cdebsonnu3tiHOjrq5O1g1RN5ubm7Fx40a5rSi33vtrLs9Tp05hwYIFsjyPHj2KzZs3O15XiIiIyJ24AwbRYIhn2NHs2bPh8XigqipycnL6fMq9d+9e+P1+FBQUYOfOnUltBGzevBmqqgLoadRHIhH5t66urqjtq6ur4fV6AdxZqUjTNASDQYwbN87S0BHf1zQNqqqirKwMRUVF0HUdWVlZUFUVq1evtqxy5DY/gLvyOXfunCWoyMrK6nNIjdv8XLx4UaaflZUFTdOgaRry8/MdG7eTJk2C3++HYRjQdR2apqGoqAgAZCP68uXLMl1VVWXAZc6Pnd7Hy+PxyDyNGDEiKpBxs78tLS1oaWmBpmkoLS1Ffn6+THvBggV466230NDQEHU8YtnfePITD7fl43Z7JyL4ScYDALvy9Hq92Lx5MxYvXpxw+kRERBRnwJDoakNvv/02CgoKcP78eRw5cqTPbXVdR1tbG7xeL0pLS7F9+/aEflsoLi6GqqqIRCIIBoP9BiKBQABerxfhcBhVVVWysSN6S3o32EXjTyxvOXPmTKxZswahUAiKoqCxsRGKokDTNOi67jo/gpvyqa2ttTTqnHoc4ikf8z4Lmqbhueeeg6ZpCAQCtsGlpml46aWX5N/Ek+P8/Hy5TSgUkj0x4un0a6+91meg6fP5ZONWlDsArFq1CvPnz0cgELCURSLlL/Y7EAjgG9/4BrKzszF//nzMmDEjKlCKZX8TyU+s3JaP2+2dlJWVAejpHTP3rsWrd0+FpmnYsmWLDNITHRZJREREA/QehlAohJKSEixevDimhtCuXbsAAAUFBSnJT2FhYb+TV8WqPE1NTZYno6FQCEePHoXH4+lz5Z6TJ0/KBlI4HJZpTJw4Ma78mGVC+djRdR3Hjx8HAEyePNl2m96T40UQ4PF44sjpHbNnzwbQM3TI3DDdvn07IpEIPB6PY+Ab7/7+z//8D86cOdNnz0c8+xtvfvritnwSKU+huLhY9qiJCfuJCofDlqBA13WZ9syZM5PyG0RERPe6uHoYWlpa5PhxRVFSPlZYLNeqaVrSnhq2tLSgsLAQXq8XK1euxMqVK2EYBs6cOYPW1taop9ejR48G0LOsZzAYdP17H3zwgeXfvZ88u82PWSaUD9Dz9FgMzRH6GzbU39/jNWnSJADAmTNnov5mGAY0TcP48ePlZ4mUv91+t7W1Ye/evVHbxrq/ieQnFm7Lx+32gqqqqKmpsQx/a2trS9qT/wsXLkR9Js61+++/Pym/QUREdK+Lew5DOByGoigoLCxMePnUWLz++uty6IZdYyOedwlUVlbC5/Nh9uzZcmKpqqrwer0oLCy0XW60ra0N3d3dtul9+OGHrvOQaH6E/son1flZt26dHItvHm+flZWVcG9BurjZX/PcBbF/4XAY7733XtLm2iRSHzKFmOcAQPZEnDhxYoBzRURERG7EHTB0dnZCURTMmTMnLQFDS0sLnnrqKWiahuLi4qgnrE6NeKDv4R7m8fHAnTHlXq8XPp9P/k0EJN3d3ZbJzckWa3566698Up0fESyYx7cDfc+TSMTUqVP7/Pvp06ehaRomTJgQ9Tcxkdhu4nCs+zt37ly5z7quO64Glah46wPQd++f2/KJtzzNqxuJuhAIBLB///6Ygiq7XguzrKysqM9E3bhx40a/6RMREVH/4p7DsGvXLkQiEaiqiq1bt9quQ++0Nr3P50NTUxN2797tamy2GJts1wA9deoUAFiWfAR6JqKKBk1/E6yBnhV57IjJywUFBXLiZjo45cdOX+WTLP3lxzz0yufzITc3N6m/LxqleXl5fdadt99+GwCQnZ1teRP2qlWr4PF4EIlEYgqq+trftrY2rFmzBsuWLUvb5NpY6oNoiJeWljpu47Z8klGeGzduRDgchsfjQXl5ue02YugT0BPwiKDMiaIolvNR0zQ5l+fkyZN9fpeIiIhiE3cPg67raGxsRCAQQHZ2NmpqaixDUTRNQ1tbm+2wCTfLqprV1tbK3xOrCwmNjY2YM2cOVFVFY2OjXPZRBAvNzc2WJ5riSa05z+btDcOwPL1taWlBfn4+ioqKEAwGEQgEYBiG/F5nZ6dcLcfn80XNc1i0aBHmzZuHrq4u2zX33ebHbfm45TY/Yg5FXV0dDMOQ2zY3N8Pv98Pv9yM3NxdbtmxJaHWchoYG5OfnQ1VV+VtAz5PmV199VdalUCgkV4964YUXoupD714xt/ubyl6mePJj9t5778Hv92P+/PnIy8uTgX1tba3cb7fl43Z7J6+++qrsITH3hO3duxcFBQXQNA2NjY24cOECVFXF0aNHoaqq/Lx3/dF1HYFAAEVFRYhEIvIhRTgcRkNDQ0x5IiIior7FHTAAPQ3UUCiE0tJSTJkyRTYegJ4budNYZTfLqvYmXlS2ZMmSqGCkvLwcS5cuRW5uruWlaXYvVhs/fjzC4bAlzyLfp0+fxs6dO6N+e/369Whvb4ff78e0adMsPSidnZ3yf48aNSqqd6X37/QWT37s9FU+TuyGbrjNT1VVFcrLy/HQQw9B0zSEw2H5Ei7R46EoCkaNGhVTnpzouo4NGzZg4cKFlmMQiUQwcuRIy7aVlZWoqKjA9OnTLWv/v/7661FBarLKP1kSyc/GjRsxdOhQGVgBPefBiBEjLNu5KZ94trfT0tKCefPmQdM0LFq0SH5P13Vs27YNixYtgqqqGD58ONrb2/Hmm2/K5Vyd6k9tbS0WLFggl6Hli9uIiIiSa8iIESNuD3Qm3FAUBXV1dQCQkvXpBzs35SNexNX77bpEmc7pDdBERESUfAPyHoZEhMNhvPXWWzAMA4WFhQOdnYwTS/koioJVq1bJJ7d2y38SEREREQEJDkkaKHwa3je78hHzKlRVtawaVVdXl9BcByIiIiK6uw3KgIHcE/MqIpEIdF1HV1cXGhoaGCwQERERUZ8G3RwGIiIiIiJKn0E3h4GIiIiIiNKHAQMRERERETliwEBERERERI4YMBARERERkSMGDH8RCARQU1ODQCDg+rutra1obW1NQa7uTSzPaInUz1Tj8SJKroE+3ysqKtDa2oqampq0/F6y97e4uDih/A90+Seaf6JUSGhZVUVRsHTpUuTm5kJRFACAYRg4fvw4du7cOajewlxWVgaPxwNVVdHY2DjQ2aEk8fl8GDVqFI4cOTKo6mNvrJ/pVVFRAb/f3+c2dm+Z1jQNpaWlmDFjhrwmhsNhdHZ2YvPmzbIO1tTUQNM027esi79VV1ejpaUFwJ03W/fF7kWNFRUVUdfnffv2OdahQCCAOXPmQFVVAEBHRwfq6+sRCoWitlUUBU888QSKiork9uY89+bz+TB37lw89NBD8l0wHR0daG5ujvqOKAMzwzDQ2dnZ53LQbvLvJj/pdq+d75m2v5mWH6JMkFDAsGHDBnlR13VdnmCqqiI3NxdVVVWDZp1/wzCgaRoMwxjorFASBYPBqMbXYMT6OTDC4TAuXLhg+7euri7Lv30+H6qqqmTjU1z7NE2Doiioq6tDSUlJXPm4fPmyTE9cZyORSJ/1wdzoNl+fV65cicmTJ0cFKuYgSdd1ZGVlITs7G9nZ2VizZo2l0e3z+fDCCy/EnP+ysjIEg0EAkO+CMacPwPb8NJe/pmlQVRX5+fnYsGFDVBDgJv/x5idd7rXzPdP2N9PyQ5QJ4g4YfD6ffBHY6tWrLTfH5cuX49q1a4MmWACAZcuWobi4eFA3Kunuxfo5MN57772Y3iyvKIoMFtra2iy9CZqm4bnnnsOhQ4fizkcoFJINXtHbYBhGVA+HUFZWJq/P5sa1aCj7/X7s3bvXct0Wje2XXnpJPlWtrq6G1+tFMBi0NLhHjRqFSCSCo0ePYu/evTIwd/Lggw8CAPbs2YPt27fLz0X6fr/ftm6by19RFJSXl8Pr9aKqqgrBYNBSxm7yH29+0uVeO98zbX8zLT9EmSDuOQyjRo0C0BOJmwMDXdfxzDPP9Nt9nol4caBMxvqZuVasWAGPxwNd11FZWWkZ/qbrOhYvXoza2tq05aeoqAgA0NjYaGko19bWoq2tDQBQWloqP3/ssccA9AzJMQ/B2Lx5MyKRCDRNg8/nk58fOXIEJSUlqKystB3u01tlZSWqq6stjXMAcu7LtGnT+k0jHA6jsrJS9pYsXbo07vwnIz+pdq+d75m2v5mWH6KBltCQJADIysqCoigxieic/wAAIABJREFUjw+3G1N76NChqJupuTvdMAwsXrwY69atQ35+PjweDwzDwI4dOxAKhaAoirxJLFu2LKpnY9WqVZg/f37UmGO7cbJ2Y4oFn8+HhQsXyi7rjo4OPP/88672V9d1HDhwIGpcpJv9jYd4Ktnc3IxTp05hwYIFUBRFPiU0PxFNJD+xHl8gOeVpl77deO/Kysqoz2Id851o/QTuNETq6urkRLoNGzbI/Q+Hw1FD+NzUT/PxPXfuHEpKSuTxbW9vx/r166O+s3XrVln2YnhLe3u7Y8M2lfW/9+9UVVXh/PnzKC8vHxRzT2bMmAEAOHDgwADnpIcYw79///6ov504cQJerxfjx4+Xn4kG8smTJy3bhsNhOTwjJydH1ud4jklfDTAxjCsWBw4cgKZpmD59uvzMbf6TmR87YnhU7/NVnKd281/c3o/E77g9v9wqKytDIBCAx+NxvF+4vb/Eu7/FxcXw+/2YNm1azPNOysrKYroepvp6m+r8u72ex8Nt/mOtn/HcHyn94g4YWlpa8NRTT0FRFLz88stoamrqt2KK7l7AOr43GAxi3LhxlhNTjA8W41bLyspQVFQkx5qqqorVq1cjEAggHA6jra0NXq8Xjz32WFSlysvLAwC0t7dbPjePQRaBjxPz+GRxMk6YMAFr166NeX89Hg80TYOmaRgxYoSlvNzsbyImTZoEv98ve4Y0TYPX68XmzZuxePHihPLj5vgmozyd0jeP91ZVVTbgI5FIn2WTqvppNnPmTLS3t6OoqAirV6/GsWPHYBgGVFXF3LlzLXXXTf0U7I6veNrc+yZz8eJF+XtZWVmybubn50c1ZlJd/81mz54tx9vn5OQMiid94thkwgTJ4uJiAD2NBruGvahXIqgAgPvvvx8A8MEHH0BRFJSWluLs2bNobGzE6dOnoWkahg8fnvS8jhw5EgBcNQRaW1uxcuXKlOQ/nvwki9vzPd7zyw2Px4NgMCivn6qqyvuFXTAf6/0lnv0VD/6AO4Gged7J+PHjbfc5EAjg/Pnz/V4PU329TXX+3VzP4+E2//HUTzf3R0q/hHoYtmzZgtWrV0NRFASDQZSUlOCtt96K6uYFeiq91+uNihRFQ6SgoMCyspI4GUTkOXPmTDlxTfQoKIoCTdOg6zqOHDkCr9crgwNBNOgikUjU0zbzCdffqigLFy6Ex+ORT1VFPqurq2239/l88mQxT7gTJ10gELCcMG73N16apqGurk7+tqZp2LJli2z0is/d5sft8XVbnm7SN4/3Fk+NXnvttT4bnqmun4J4ElNUVIQLFy5g/fr1qKiogKqqmDBhgiVPbuqnoGmaZQy3eBKWn58ftW3vG44Ya69pGgKBgKXxm+r6b/b222+joKAA58+fx5EjR/rd51TKzc21XdrQfAMWDfRM4zRhU5Sp01P00tJS2TD405/+lJrM/cWjjz4KADh27FjM3+mvdyOR/MeTn2Rxc74ncn65oaqq5XoiHhCqqorS0tKoe32s9xe3+6tpmjym5vTFPufl5dneF3vnJ9brYbKvt+nOv/iu0/XcLbf5j7d+urk/Uvol9B6GUCiEFStWYM+ePQiHw1AUBfPnz8fu3bst40UBICcnBwDQ1NRkqVihUAhHjx6Fx+OR29g5efKkpTtcpDFx4kQAPU/2xBMQc7eiGNt69OjRhIY2iC7v+vp6Szq7du2y3X727NkAerrrzN3g27dvRyQSgcfj6bOh0d/+xiscDltOVF3X0dTUBKCn0RtvftweX7flmWj96U+q62csxFPSRBiGYbkxiCApliEWuq7j+PHjAIDJkydb/pbO+h8KhVBSUoLFixcP+HAkEfT1/u9uloqeBDvFxcVyYnZDQ0PS0o03/6nKTyoken+Jla7rlutJOBzGW2+9BcB+nke895f+zJ07FwDQ1tYW1dDcvn07ysvLbYfrGoZh2d7N9TAWsV5vByL/fV3P3XKb/1TUz2TcHykxCc9hCIfD2L59O7Zv3y6HZdgNxxg9ejSAnmUuxXJ2bnzwwQeWf9t1sYmurNLSUhltix6HRJ9UihO090nt9LR/0qRJAIAzZ85E/U2MqTWPIe4tlv2Nh90SkeK3+joh+8uP2+PrtjwTrT/9SUf9TIf+hl2ZlZWVIT8/39IAdvp+uut/puhvTDXQcxMX82PczOdKNfOQHbP+AuudO3fi6tWruHr1KkKhkLz5J5PP58MPfvADAD0TsZNZZvHkP5X5SYWBPL/6ul/Ee3/pj3i63N3dbft3p+Pl5noYj1jTT0f+3VzP3XKb/7vl+k9WCQcMZrW1tdi/fz/q6uqgKIrtsmRtbW2Ole7DDz9M6PfffPNNFBUVyQmIYjhSOBzOiLHF94JUHt+7If1MsW7dOjkW1jy/IysrK2lP3+4looe1sLAwpmvNpUuXUpYXEcB4PB7bAMZunP6NGzcAAFOnTkVLS4tlqIm4+V+9ejUp+TPPh6mrq3N9bRYPosz7lUj+E83PvWbq1KkA7pQ5DTxezykdkhowANZVKczEDbK7uzumdc3jEQqF5AQZn88nn6Qlczxq7zHpTsMTxEQ7u3F34slf7xc/pUNWVlbUZ8m4AcR7fGMtz0Trj9hHJ+mon5lE3Fx6v9AqlrHEg7n+p0pnZycURcGcOXNianA6BaVAcoZLiOvgE088ETWEQFwXzeV/8uRJZGdn2w4zEccrGfNJzPWr91joWNnNM4g3/8nIjxvJeqo6kOeXeCD3/vvvR/0tVfeXM2fOIDs7WwZ/g02q8x/v9TxWbvN/r13/7xVxz2EIBAK2K/aIF7oBPavVCGJyaEFBAcrKyuL92X698847AIDHH39cDkdKxnjUjo4OAMDy5cstny9ZssR2+7fffhsAkJ2dbZnPsWrVKrnSzECs/qIoiqX8NU1DQUEBgOglCd1we3zdlme89UdclPLy8vpc9SJd9TPTmIdS+Xw+5Obm2m6Xzvrv8/nQ1NSE3bt3x7RSSSbYtWuXnEO1detW20DK/NmpU6cAwLLkINBzXU1GA11cBwOBgOV3y8rK5GRE83Xx17/+NYCe42W+rq9btw4ej0cuJhAvn8+H3bt3yxVl1qxZ47pxrigKqqurbecZuM1/IvlxUz/NDSxFUWTDLlEDcX6Zyz8cDtsu2Zuq+8vevXtlehUVFXGnM1DSlf9Yr+dmsdQHt/nP1PYPJSbuHoacnBx4vV6sXLlSdoGJpRCBnqEdvde8zs/PR1FREYLBIAKBgFzFw+PxoLOzU8478Pl8UePIFy1ahHnz5qGrq8txjWOg5yY4f/58y3r4duOsxXg/QTwZMa+KYv6t+vp6uXxYU1OTXFLMbowe0NPbIZZ6feGFF+SyYqJ8zE8hE9lft8SKRkVFRfKFRkBPz5C4AceTHzfHF3Bfnm7TFxoaGpCfnw9VVVFXVye/k5WVhVdffVVetNJVP2Pltn66JZboE2Ui6mZzczP8fj/8fj9yc3OxZcsWhEKhlNb/3jJpWVWnVZIAa/mLyaGBQADZ2dmoqamxDA3QNA1tbW1yrkNjYyPmzJkDVVXR2NgYVT7Nzc2WITfmOid6IFRVteTNPG9m+/btyMvLk9v0Tv/QoUNRL9wUx37lypV49NFHLUtLvvrqq5Z9730OiHTFeQD0PLEX94DZs2fLbYYNG2Y7V8huzXhz+YtrVSQSkWUWb/7jzY/4bn/1c+/evSgoKICmaWhsbMSFCxegqiqOHj0qF+ZobGyU55fb8z1d55e5jpnvFVu2bLEddx/L/QVwf33TdR11dXXyLeUFBQWWVcA0TbN9r06s0nG9TWX+3V7PzWKpD27zn0j9pMwVd8Bw5MgRDBs2DBMmTLBMrtN13fFCu379erS3t8sXf5iffHV2dsr/PWrUqKgndE4T+HoLh8Po6OiQLzA5dOiQ7Xbjxo2zfQqoKIptlB0KhVBdXY158+bJlVJ0XUd9fT3GjBljm7/KykpUVFRg+vTp8rd0Xcfrr79uOSkT2d941NbWYsGCBXK52d4v1ok3P7EeXyC+8nSTvqDrunwBjPk7kUhEjuV2m346jpfb+ulWVVUVysvL8dBDD8knhmKCr+jCVhRFvtE9lfW/t0xaVtVNedfW1iIUCqG0tBRTpkyJui6eOHHCsn15eTmWLl2K3Nxcy0sA7V4UaFfnxLrmTpzS37dvn+0Ne+PGjTh37hyKiork9k4vZbLLD2A9D0Td6c2pTE+fPt3ntoZhoLOzEw0NDbYPgdzkP978ALHVT13XsW3bNixatAiqqmL48OFob2/Hm2++KXt4zOdXPOd7Ks+vc+fOyYeA5rSPHTuGhoaGPieF93d/iXd/a2tr0dXVZXt9FsOg411yPNXXWyC1+Xd7PTeL9XrrNv/x1k/KXENGjBhxe6AzQanX1xtGiYiI4sX7C9HdL6H3MBARERER0d2NAQMRERERETliwEBERERERI44h4GIiIiIiByxh4GIiIiIiBwxYCAiIiIiIkcMGIiIiIiIyBEDBiIiIiIicpQRAUNraytaW1tTtj0REREREcXnC8lIZOvWrcjOzgYA7NmzB9u3b09GsjTAFEXBE088gaKiIqiqCgCorq7u87XugUAAc+bMkdt3dHSgvr4eoVAoKXkazOm7LU9N07BkyRJMmTIFiqIAAAzDwKFDh1BbW5vw9kRERESxSErAkJ2djUgkAo/Hg2nTpiUjSRpgPp8PL7zwgqvvVFRUwO/3AwB0XUdWVhays7ORnZ2NNWvWJNzoHszpuy3PsrIyBAIBeDweS35UVUUwGMTw4cMtgbnb7YmIiIhilfCQpEAgAABob2+HYRiyp4EGt1GjRiESiaCt7f9n7/5C27jy/vG/l9/ytJ0kpMUdQ8wyxG3CM2xDFbCJNfDFlmhYLNOQXFh1yIVV5cqtzT4QX1gpNf6ZFOJcONCSNr6JXedisVEvNmyxTWmxmxvZSw1rP2mZxXFdhmITj9M0LJ6lV/u98PeczEgaWyPJ/+L3C8pu5KOjz4xmpPPnc46mcfXqVZimuWl5XddlY/vTTz9FW1sb4vE4pqenAQCJRKKkePZ7/UHPJwAoioLJyUnE43EZz/j4OADgzJkzJZcnIiIiKkTJHYY//vGPAIAffvgBi4uLAJ51Imj/mp2dRVNTE1KpVEEj62fPngWwkcKTTqfl4/39/XAcB7quwzCMouPZ7/UHPZ9DQ0Noa2tDb28vbNuWj8/NzQEAXn311ZLKExERERWq5JSkU6dOAQDS6TTi8Tii0ajsRGQzDAMXL16UsxBzc3P46KOPfOsOUn5gYAC6rgPYyNtubW1FT08P6urqoCgKLMvC7du3cxprXV1dqK2tLSjnW1VVXL58GdXV1fK1BNM00dbWVlJ593F3d3djbW0NnZ2dngbgTgn6miIVbWFhIacey7Kg6zpqamqKTuvZ7/UX8x7mm4U4cuRI3jiLKU9ERERUiJI6DLquQ1VV2VCZmppCe3u77ES4iUawoihwHAeWZaGqqgoffvhh3rqDll9ZWZExaZqGZDKJaDTqyeW+cuWKZ/ajr68P4XAYwLPGlq7rSCQSqKysxI0bNzyv0d/fLxerWpYFx3FyXr+U8kJ9fT0URYGmaaipqdl0kfFe8cILLwAAHj58CFVV0dLSgkePHiGdTmNpaQm6ruPQoUMHtv5yMAwDyWQSjuNgZGSk7OWJiIiI8impwyDSOJaWlgBsjKKapgld16HrumfE8+LFi1AURc4SiBHXvr6+vHUHLd/b2wsAcrvV06dPy4WqqqoinU5DVVUZVzweRzgchm3b6O7ulrGKjkpDQwMGBwfl6zY2NkLTNDiOg0QiseWIcdDybvfv30dDQwPW1tYwOztb8PP2ipaWFjQ3NwMAfv75Z9ZfAl3XcfbsWZw8eRKhUAhzc3O4ffu27xqIoOWJiIiItlLSGgaRxnH//n35mOg8iM5EdtmRkRFP4/nzzz/ftO5Cy2dbWFiQ6SOiIwMAx48fBwDU1NQAAMbGxjyNqUwmg/n5eSiKIstki0QiMoWpEEHLZzIZNDU1obW1dVfSkUq13SPx+73+IAzDQHNzs0zLq6qqwvnz58tWnoiIiGgrJc0wiO1U3Xndc3NziMViOduriu0es3PA/UY+g5bP9vDhQ8+/s9cLvPzyywA2dr8pZAeciYkJRCIRhMNhtLe3o729HZZlYXl5GVNTUzlpQ0HLP08GBwexvr6O9fV1ZDIZ1NfXs/4iDQ0NYWhoCKqqIhKJ4Ny5c4jFYnjxxRflrFop5YmIiIi2UnSHwb0WYGBgIOfv+2V71enpaTx58iTv33766SfPv1OpFAzDQH19vVzIrGkawuEwIpEIUqlUSeX3s99++w0AcOLECUxMTHj2/K+urgYArK+vH9j6S2XbNtLpNKamppBOpxGNRjE6OurbgQ5anoiIiMhP0R0GsROSoig5OwAJ8Xjcs0UlgJy1DX7PLbZ8oX799VcAwJMnT3IWN28mk8l4Zj0aGxuRSqUQDodhGEbOjEjQ8vvVwsICQqFQ3h/uEwu/S1mPsd/rLxfbtmHbNlRVxfHjx7fsAAQtT0RERJSt6DUMYiektrY2RCIRz39ffPEFAHi2VxX7wb/33nueet5999289QctH5RYHN3Q0IBkMll0PU+fPi17ecMwMDY2hrt37wZa+7Cbvv76awAbM0vu2aeenh4oigLbtn07R4Uc736vPyhVVfPW1dHRIR93d2CCliciIiIqVFEzDGI7VfdiYrfZ2Vk0Nzd7tlcdGRlBKBRCKBTC2NgYLMtCRUUFlpeX875GkPKGYeSsQ7h06RIuXLiAlZWVvLnbExMTqKurQzQaRSKRQDweh2VZADZmTRYXFz3PEzMD7u1RxdanwMa2qflmEgot77YXtlXNPqcibnFeAWB4eFgeg2maGB8fRywWQ3t7O9566y1UVFTIxuqdO3d8X6uQ493v9Qc9n2KnJvf1o2maXNszPDzsWRAftDwRERFRoYrqMIgdkMQvO2fLZDIyDUKkFGUyGfT19eHChQuebVdHRkbwyiuvyAaUu45Cyx89ejQnVSm7vnx6e3sxMzMjF2m768g+tmPHjsG27Zx6TdPE0tISBgcHSyrvthe2Vc13TgHknHe3GzduYHV1FdFoVD53bm4O4+Pjm3Z6Cj3e/Vx/0PP56NEjuUWx4DiObzxByxMREREV6neHDx/+z24HQUREREREe1NJv8NARERERETPN3YYiIiIiIjIFzsMRERERETkix0GIiIiIiLyxQ4DERERERH5YoeBiIiIiIh8scNARERERES+2GEgIiIiIiJf7DAQEREREZEvdhiIiIiIiMgXOwxEREREROSLHQYiIiIiIvLFDgMREREREflih4GIiIiIiHyxw0BERERERL7YYSAiIiIiIl/sMBARERERkS92GIiIiIiIyBc7DERERERE5IsdBiIiIiIi8sUOAxERERER+WKHgYiIiIiIfLHDQEREREREvthhICIiIiIiX+wwEBERERGRL3YYiIiIiIjIFzsMRERERETkix0GIiIiIiLyxQ4DERERERH5YoeBiIiIiIh8scNARERERES+2GEgIiIiIiJf7DDQgRCPxzEwMIB4PL7boexLXV1dmJqawsDAwI68Xrnfr8bGxpLi3+3rp9T4iYiISvH73Q6AdlY8Hse5c+egaRoAYG5uDiMjI8hkMjlldV3Hu+++i9dffx2qqgIALMvC5OQkhoaGcsqrqoqamho8ffpU1tfV1YVYLAbTNNHW1raNR7a5ZDIJRVGgaRrS6XTZ6jUMA0ePHsXs7Cxs2y5bvc9LPMXarvfreYlnu+y162e74zlox0tEVCzOMBwgXV1daG9vh6ZpME0Ttm0jFArh+vXrMAzDUzaZTOLmzZsIh8NQVVWW1zQNiUQCHR0dOfVfvnwZqVQK58+f36lDKphlWZ7/LZdEIoFUKoWampqy1lusvRZPsbbr/SrWXotnu+y162e74zlox0tEVKyiZxiSySQOHTqE0dFRjoTsA7quIxaLAQA+/fRTOUra19eHcDiMRCKRM8ugKAomJyfx2WefyfdYzBicOXMm5zWqqqoAAE+ePNnOQylKW1sbGhsbMTExsduhUAH22vu11+IhIiLaSUXPMFRWVqK5uRnDw8Po6+uDruvljIvK7OzZswA2UpDcKRX9/f1wHAe6rntmGYaGhtDW1obe3l5Ph3Bubg4A8Oqrr+a8xiuvvOIps9ewsbe/7LX3a6/FQ0REtFOKnmGYm5tDdXU1dF1HOBxGOByGaZr45ptvypLj29jYiFQqhfHxcfz444945513oKoqHMfB/Pw8+vv7885sdHV1oba2VubcbxVTdvnNcvRFXLFYDCdPnoSiKPJcjI+PywaFiF3k7Wf/GwCmpqYAAJFIJHB54eOPP0YoFAIAOI4Dy7IwMzOTN/aTJ08CABYWFjyP27YNy7Kg6zpqamo8swymaebUc+TIkbz1AJDrImZnZ/Oeu1KImY3x8XHcuHFDPp7vXAkDAwM5Hdns5+d7na2uH/GabqlUKucx93vlV/9Wa0IuX74s7zM39/GWEk8xkskk4vE4FEXxvR+LuX+Leb8KuR/zxd/U1CTjmZmZQW9vb065IPG4j3d1dbWg+rc7/kI/Hw7a9XzQjpeIqByK7jBMTExgYmICuq6jpaUFdXV10HUduq7jnXfewbfffluWdKXq6mrEYjFYlgXTNGUHpb+/H62trZ6yIr0G2PhAVhRFxnT48OGcD/Xs8sBG6k4ikUBlZWVOw6CjowPNzc0AnjW0KyoqEAqFEAqFcOzYMQwNDeGnn37yPO/EiRMAnjWoGxsbPa8ZtLzwyy+/yMcqKirksdbV1eU0nl944QUAwMOHD6GqKlpaWvDo0SOk02ksLS1B13UcOnQImzEMA8lkEo7jYGRkxPM3EaNt23smRW1lZUX+/4qKCvkl76fQ6+fp06fyvGuaBkVRYFkWHMcJVD+w+fXW398vr4Hs+t3HVmw8xVAUBYlEQtavaZq8Hzs7O3Pe+yD3b9D3q9D7MVs8Hsfa2pqMJxqNAkBOoztoPH7H61f/dsdf6OfDQbueD9rxEhGVQ8m7JJmmKb+o4vE4/s//+T8IhUJobm7GqVOnSt4ZR9d1DA8Pyy9OXddx8+ZNaJqGZDIpHzcMQ36YX716VY6Uiy/leDzu+fKNx+MIh8OwbRvd3d3yA9swDHR3d6OhoQGDg4OyAaTruvxyd8cjXuPMmTOyDveXNAAcOnQIlmXJLw/ht99+K6q8kN1A0HUdH3zwAXRdRzwe951VaWlpkcfy888/5y3jrvPs2bM4efIkQqEQ5ubmcPv27ZzOi+jkLC8vb1rfTnKfHzFD4SfI9ZPJZOTfxSj0X/7yl01TVoJeb42NjdA0DY7jIJFIbNoJKyaeYmma5lkDo6oqPvvsM2iahpaWFty6dctTvtD7Fwj2fgW5HzeLR4zu1tXV5ZQNEo+7fvf58at/p+MXz833+XDQrueDdrxEROVQ1l2S/vd//xfLy8tlHRmxbdvzZWqaJsbGxgAAp0+flo/X19cD2JjOd6fV3Lp1C47jQFEUOQoOQO5CMTY25vlizmQymJ+fh6Ionp0qxM4/09PTOaN+t27dQmdnp+d1HceRI5LV1dX4/vvvAWx8kRw7dgyAt3EdtHw+pmnK57322mu+5baaSXAzDAPNzc0ytaGqqirvLkh/+MMfCopxrwp6/QQV9Hpzi0QiBY1u7wTTND0dUdu28e233wJ4lvbmVuj9G1TQ+1GwLMtTXjTKRDpQqSzL8pwfv/p3I/5CPx8K8bxcz4U6aMdLRJStLL/DkEwmZUqSMD09jXv37pVc9+PHj3Mee/jwIYBnaTbARiMbyN9gFTn6ouENAC+//DKAjW3sEonElnFstQNQ9giSeE1g48v8xx9/hGVZOHLkCCorKwEAq6urRZcH8p/3Qjprg4ODWF9fx/r6OjKZjGws5zM0NIShoSGoqopIJIJz584hFovhxRdf9IxgivOzVxc8byXo9RNU0OttYmICkUgE4XAY7e3taG9vh2VZWF5extTU1J4afcx3PwqF3r9BBb0fhe1O8yi0/p2Iv9jPh0I8z9dzPgfteImIshXdYXCvXRCjW7Zt47vvvvNMze5109PTvl/a2WsLghDpQ4ZhQNM0/Otf/8KTJ088I3vuPNag5Xt6emTusjvftaKiIu9oo6j/xIkTmJiY8KSOiMby+vq67/HYto10Oo2pqSmk02lEo1GMjo56cm8B4NKlS7hw4YJ8nkiz0jQNAwMDu/rjbXtBkOstlUrBMAzU19fLhZNizUAkEslZFLlbRDpadsoc7Z6gnw/Feh6v580ctOMlIhKK7jCcP39efiGZpum7O0+pRIPTLV8DRSzcFSN3bqIx625w//rrrwA2Rvg224VFWF5eRigUko3rQsuL0b2JiQmEQiFUVVXJkVX3bkJBy4tz7863B/xzrRcWFhAKhfKmjQTZ3UgsalZVFcePH4dpmp7tWLPXXQhiAXG5lTLq7xb0+skmrkk/Qa83wZ3fDDzLWQ+HwzAMI2/aSiHxlNOpU6cAAP/4xz9y/lbo/RtU0Ptxr9nu+IN+PmQ7aNfzQTteIqKgSlrDMD09jatXr6KtrW1bOgvAxqLKZDIp/63rOhoaGgB4t/a8f/8+ACAUCnkasB0dHXL7R/c0sNimtKGhwVO/H5Fepes6urq6Co6/srJSzrasrq560jDyzcIELS/SO4CN2Yna2tq8cXz99dcANs5PPB6Xj/f09EBRFNi27fnyUlU1b95tR0eHfFx0MDKZDCKRSN7/xsfHAWx0Kv22BTQMA2NjY7h79+6Wub7uBpaqqrJhVKqg148gOhFnzpzZNPag15ufp0+fbvr3QuNxC3L+3VRVlb/BYts2vvzyy7xlCrl/gyr2ftwrdir+Qj8fhIN2PT8Px0tEtBOKnmEIMspSCtM0EY/HEY1G5Q+MARuN59HRUVkuk8lgenoa4XAY169xck+fAAAgAElEQVRfl9tiitHh7B2DJiYmUFdXh2g0ikQigXg8DsuyAGyMhi8uLnpy9E3TxPDwMBKJBGKxGBoaGmR5YOOL390gnpubyym3srICXdfhOE7ODihBy4stFYeHh2FZljzW8fFxxGIxxGIx1NbW4ubNm8hkMjBNU/6tvb0db731lmeryDt37njqFzspudMZxJZ/wMbOLuVKO6uvr5fx19TU5G2Y37t3Dw0NDdB1Hel0Go8fP4amaZifn4emafJxcbwif1sQI921tbUYGBiQ51e8x0GvH2F0dBR1dXXQNE2+F+L17ty5I48l6PUmRiLd598dj2VZeUcnC40n6PkXRGoZAM+9ePPmzbzXQ6H3b9D3K+j9GFTQeILa7viDfj4IB+16fh6Ol4hoJ5Rl0fN2GxoawjvvvCO3qfP74adUKoWuri688cYbsmFimib++te/5v2g7e3txczMjPzhJHfKzOLiYt44VlZW8pYXC2OzG/aKoshRo4mJCaRSKSiK4puOUWj57u5udHZ24s0335QjvOJHpUTKgaqqOHr0qHzOjRs3sLq6img0KmP3+5GoR48eyUaH4DjOlj8qVYz79++joaEBa2trvmlRpmnik08+waVLl6BpGg4dOoSZmRl89dVXcjtU9/FWVlbmTYHymzkBgl8/4u/Xrl3DxYsXPdeE4zjyR+6EINfbsWPHYNt2ToqXaZpYWlrC4OBgyfEIhZz/1dVVuVuU+9w8ePBgy99bKeT+Leb9KuZ+LFQx8QS1nfEX8/kAHJzr+Xk6XiKinfC7w4cP/2e3g8hns1/wJaK9jfcvERHR86Osv8NARERERETPF3YYiIiIiIjIFzsMRERERETka8+uYSAiIiIiot3HGQYiIiIiIvLFDgMREREREflih4GIiIiIiHyxw0BERERERL7YYfh/4vE4BgYGEI/HAz93amoKU1NT2xAVERWilPu3HLq6ujA1NYWBgYEdeb1yH29jY2NJ8e/2+S81fiIi2tzvS3myqqq4fPkyamtroaoqAMCyLHz//fcYHByEbdtlCXInJJNJKIoCTdOQTqd3O5x9p6urC7FYbNMy+X71V9d1tLS04NSpU/Iasm0bi4uL6O/vl9fQwMAAdF3H+Pg4bty44alD/K2vrw8TExMAnv3S8GYikUje48i+nv/2t7/5XhPxeBznzp2DpmkAgLm5OYyMjCCTyeSUVVUVb7/9NqLRqCzvjjmbYRg4f/483nzzTSiKIusfHx/PeY44B26WZWFxcRGjo6MwTbPk+IPEs9MO2v271453r8VDRETlVVKH4dq1a7KRYpqm/MLQNA21tbXo7u72bajsNZZlQdd1WJa126Hsa7Zt4/Hjx3n/trKy4vm3YRjo7u6WjU9xrei6DlVVMTw8jKampqLiePr0qaxPXJeO42z6/rob3e7rub29Ha+99lpOR8XdSTJNExUVFQiFQgiFQrh69aqn0W0YBq5fv15w/MlkEolEAgDgOE5O/QDyNtLd51/XdWiahrq6Oly7di2nExAk/mLj2SkH7f7da8e71+IhIqLyKrrDYBgGdF2H4zi4cuWKp7H33nvv4d///ve+6SwAQFtbGxobG3d9pHS/++6773Ia1vmoqio7C9PT057ZBF3X8cEHH2BycrLoODKZjGzwitkGy7JyZjiEZDIpr2d341o0lGOxGO7du+e5zkVj+9NPP5Wjqn19fQiHw0gkEp4G99GjR+E4Dubn53Hv3j0kEomcGQG3//7v/wYAfPHFF7h165Z8XNQfi8XyXqvu86+qKjo7OxEOh9Hd3Y1EIuE5x0HiLzaenXLQ7t+9drx7LR4iIiqvotcwHD16FMDGyJK7Y2CaJv7nf/5ny3SQvYhfdjvn/fffh6IoME0TqVTKk75mmiZaW1sxNDS0Y/FEo1EAQDqd9jSUh4aGMD09DQBoaWmRj589exbARkqOOwWjv78fjuNA13UYhiEfn52dRVNTE1KpVN50n2ypVAp9fX2exjkAuVbm5MmTW9Zh2zZSqZScLbl8+XLR8Zcjnu120O7fvXa8ey0eIiIqn5JSkgCgoqICqqoWvF4hX4745ORkTuPQnR5iWRZaW1vR09ODuro6KIoCy7Jw+/ZtZDIZqKoqGz1tbW05MxsdHR1obm7OyaHPl/edL0deMAwDFy9elCkYc3Nz+OijjwIdr2ma+Oabb3LyfIMcb764uru7sba2hs7Ozn2xduTUqVMAgG+++WaXI9kgcvi//PLLnL/985//RDgcxrFjx+RjooG8sLDgKWvbtkzPqKmpke9XMe/JZg0wkcZViG+++Qa6ruONN96QjwWNv5zx5CPSo7LvPzE7lG/9S9D7V7xOIfdjKZLJJOLxOBRFkbNK7hk093GNj4/jxx9/xDvvvANVVX3LF3u8jY2NiMViOHnyZMHrTpLJJJqammQ8MzMz6O3tzSkXJB738a6urhZU/3bH//HHH8vPcpGuODMzU9aBiqDxF3p9io768PCwXGh+7do1+f1k2/a+Sgkmor2v6BmGiYkJ2LYNVVXx2WefIZlMbvmcvr4+xGIxqKoK0zRhmiY0TUMikUBXV5en7MrKivyw0zQNyWQS0WgUlmXBtm1omoYrV64A2GjkiFFgMXLqdubMGQDAzMxM3tcwTXPLBp1olIdCIZnDXVVVhQ8//LDg4xUNsfb29pzzFeR4s9XX18t8+5qamk2PY68QX4h7YYFkY2MjgI1GQ77rQKy9EJ0KAHjhhRcAAA8fPoSqqujo6JBf3EtLSwCAQ4cOlT3WI0eOAECghoBoXGxH/MXEUy5B7l8g2P1YLEVRkEgksLa2Js9JOBxGf3+/vObdqqur0d7eLlM4FUWR5bMFPd6Ojg6kUimEQiGsr6/L54VCIaRSKd9jjsfjnnii0Sh6enpKjkccbyKRKKj+7Y7/l19+kfGvr69D13UkEomy7bQUNP5irs/Tp09jZmYGiqLgypUr+OWXX2BZFlRVxfnz58tyHEREQIkzDDdv3sSVK1egqioSiQSamprw7bff5qQtABsf4uFwOGfkQzTEGxoaPDsriREh0dg5ffq0XIgpZhRUVYWu6zBNE7OzswiHw7JzIIiFn47j5Iweu0edttrl5+LFi1AURc4qiDj7+vryljcMA+FwGAA8C0jFbEc8HveMZAU9Xrf79++joaEBa2trmJ2d9T2GnVBbW5v3C9c9Oiwa6HuN34JNcU79RtFbWlrQ3NwMAPj555+3J7j/56233gIAPHjwoODnbNWYKyX+YuIplyD3b9D7sViapnnWhIgBFU3T0NLSkvPZqOs6hoeH5Wvruo6bN2/KQYN8nxGFHK+u6/I9ddcvjvnMmTN5O3nZ8YiZgbq6upyyQeJx1+8+P37173T84rkffPABdF1HPB4vaTAjaPzFXp9ipiIajeLx48fo7e1FV1cXNE1DVVVV0fETEWUr6XcYMpkM3n//fXzxxRdytqG5uRl379715D8DkCPfY2Njng/KTCaD+fl5KIqy6ej4wsKCJ71D1HH8+HEAGyPVjuNA0zTPNLmYcZifny8pVUekcIyMjHjq+fzzz/OWr6+vB7Ax/exO67h16xYcx4GiKJs2nLc6XrdMJoOmpia0trbuejqS6NRk//c8246ZhHwaGxvlwuzR0dGy1Vts/NsVz3Yo9X4slGmanoambdv49ttvAeRf52HbtqchaJomxsbGAGwMGhRLjC5PT0/nNDRv3bqFzs7OvOmNlmV5you0mVJTztz1u8+PX/27Eb9pmvj+++8BAK+99lohh+MraPzbcX2KWUQionIoeQ2Dbdu4desWbt26JdNoRPqM+0d8Xn75ZQBAIpGQ2zMG8fDhQ8+/8+12MzMzg2g0ipaWFjl6JGYcSh15F1842V9SfqkY1dXVAIDl5eWcv4mpZndOfLZCjncv2iqnGtj4EheL4oOsf9lu7pQdt63SvAYHB7G+vo719XVkMhn55V9OhmHgz3/+M4CNhdjlPGfFxL+d8WyHUu/HUoh7OV8DLt8WxJuVL5QYXX7y5Enev/u9X47jFP2ahSi0/p2IP5lMoq6uzjOgUa7jDxr/bl6fRESFKLnD4DY0NIQvv/wSw8PDUFU17zZ709PTvh+iP/30U0mv/9VXXyEajcoFtSIdybbtPZErT8+IGalIJFLQe/Prr79uWyyiA6MoSt4OTL48/d9++w0AcOLECUxMTHhSTcSX//r6elnic/9exfDwcOBrWXTc3cdVSvylxnPQnDhxAsCzc067r6enR+6MZlmW7ChUVFSUbTaFiOh5UtYOA+DdZcVNNPiePHlS0D79xchkMrAsC5qmwTAMOTJczvzq7DUEfuk2S0tL0HU9bx6pGMnO/iGzg2RxcRGqquLcuXMFNTj9OplAedIlxHXz9ttv56QQiOvI/X4tLCwgFArlTTMR72851pO4c8Ozc6ELlW+dQbHxlyOeIMo1qrqb96MYwPjHP/6R87eKioqcx8rRwVheXkYoFJKdv/1mu+MXnYXsHygsdC3GVoLGz+8LItrril7DEI/HPSlHgvhBN2Dj13YFsZi3oaGhbDuS5PP3v/8dAPCnP/1JpiOVI796bm4OAPDee+95Hn/33Xfzlr9//z4AIBQKedZzdHR0yO0Wy7VvuWEYGBsbw927d/PuxLIXff7553LNyccff5y34+V+7McffwQAz5aDwMZ1WI4Gurhu4vG453WTyaRcjOi+jr7++msAG++v+z7o6emBoiiwbbug31vwYxgG7t69i1gsBsuycPXq1cCNc1VV0dfXl3edQdD4S4knyPXpbmCpqiobdqUq5X4s9v5yn3/btvNu2auqqufzUNd1NDQ0AMjd8jaIe/fuyfqyd6DbD3Yqfnfqp2EYqK2t3fI5hVwPQePfye8LIqJiFD3DUFNTg3A4jPb2djmlK7b2BDZSj7L3cK+rq0M0GkUikUA8Hpe70iiKgsXFRbnuwDCMnHUOly5dwoULF7CysuK7Zzew0ahrbm72/H5BvnUGIn9VECN97l1+3K81MjKCUCiEUCiEsbExWJaFioqKvDmnwMZsx/T0NMLhMK5fvy63+BPnxz2qXsrxArnbqu7mF4vfLkmA93yKxaHxeByhUAgDAwOe1ABd1zE9PS3XOqTTaZw7dw6apiGdTuecz/HxcU/KjfucihkITdM8sbnXhdy6dQtnzpyRZbLrn5yczPmBwvHxccRiMbS3t+Ott96Sv0kCAHfu3PEce/Z7LOoV7zOwMWIv7pn6+npZ5qWXXsq79iffnvHu8y86Po7jyHNWbPzFxiOeu9X1ee/ePTQ0NEDXdaTTaTx+/BiapmF+fl5uZJBOp3Hz5k1kMpnA92+Q+7GY+AX3NSbOv23buHnzZt68e9M0EY/HEY1G5Q/miee4O3hBj9c0TQwPD8tfKW9oaPDsAqbrOiKRiO9xbCVoPEFtd/ymacodlSzLku+vuCdisRhqa2vl9eZWyPUQNP5Srk8iop1QdIdhdnYWL730EqqqqjyLRU3T9G049Pb2YmZmRv6QjXskd3FxUf7/o0eP5ow4+y1IzWbbNubm5uQP8kxOTuYtV1lZmXdUW1XVvKNGmUwGfX19uHDhgtz5xzRNjIyM4JVXXskbXyqVQldXF9544w35WqZp4q9//avnS6aU4wX21raqfucvn6GhIWQyGbS0tOD111/PuY7++c9/esp3dnbi8uXLqK2t9fzIXb4f/st3ThVF2XTHJr/6//a3v+X9wr5x4wZWV1cRjUZleb8fZcoXD+B9n8Wvp2fzO6fi9xL8ylqWhcXFRYyOjubtNAeJv9h4gMKuT9M08cknn+DSpUvQNA2HDh3CzMwMvvrqKznDo6qqPEdB71+g8PuxmPhXV1floIm77gcPHmB0dHTTReFDQ0N455135PbP+X64rZjjHRoawsrKSt7PW5E2WuzvZxQTT1DbGX93dzc6Ozvx5ptvyhkgsWGDSElyX29uhX7eBo2/2OuTiGgn/O7w4cP/2e0giIgOks1+wZqIiGivKel3GIiIiIiI6PnGDgMREREREflih4GIiIiIiHxxDQMREREREfniDAMREREREflih4GIiIiIiHyxw0BERERERL7YYSAiIiIiIl97osMwNTWFqampbStPRERERETF+X05Kvn4448RCoUAAF988QVu3bpVjmppl6mqirfffhvRaBSapgEA+vr6MDEx4fuceDyOc+fOyfJzc3MYGRlBJpMpS0z7uf6g51PXdbz77rt4/fXXoaoqAMCyLExOTmJoaKjk8kRERESFKEuHIRQKwXEcKIqCkydPlqNK2mWGYeD69euBntPV1YVYLAYAME0TFRUVCIVCCIVCuHr1asmN7v1cf9DzmUwmEY/HoSiKJx5N05BIJHDo0CFPxzxoeSIiIqJClZySFI/HAQAzMzOwLEvONND+dvToUTiOg+npaVy9ehWmaW5aXtd12dj+9NNP0dbWhng8junpaQBAIpEoKZ79Xn/Q8wkAiqJgcnIS8XhcxjM+Pg4AOHPmTMnliYiIiApRcofhj3/8IwDghx9+wOLiIoBnnQjav2ZnZ9HU1IRUKlXQyPrZs2cBbKTwpNNp+Xh/fz8cx4Gu6zAMo+h49nv9Qc/n0NAQ2tra0NvbC9u25eNzc3MAgFdffbWk8kRERESFKjkl6dSpUwCAdDqNeDyOaDQqOxHZDMPAxYsX5SzE3NwcPvroI9+6g5QfGBiArusANvK2W1tb0dPTg7q6OiiKAsuycPv27ZzGWldXF2prawvK+VZVFZcvX0Z1dbV8LcE0TbS1tZVU3n3c3d3dWFtbQ2dnp6cBuFOCvqZIRVtYWMipx7Is6LqOmpqaotN69nv9xbyH+WYhjhw5kjfOYsoTERERFaKkDoOu61BVVTZUpqam0N7eLjsRbqIRrCgKHMeBZVmoqqrChx9+mLfuoOVXVlZkTJqmIZlMIhqNenK5r1y54pn96OvrQzgcBvCssaXrOhKJBCorK3Hjxg3Pa/T398vFqpZlwXGcnNcvpbxQX18PRVGgaRpqamo2XWS8V7zwwgsAgIcPH0JVVbS0tODRo0dIp9NYWlqCrus4dOjQga2/HAzDQDKZhOM4GBkZKXt5IiIionxK6jCINI6lpSUAG6OopmlC13Xouu4Z8bx48SIURZGzBGLEta+vL2/dQcv39vYCgNxu9fTp03KhqqqqSKfTUFVVxhWPxxEOh2HbNrq7u2WsoqPS0NCAwcFB+bqNjY3QNA2O4yCRSGw5Yhy0vNv9+/fR0NCAtbU1zM7OFvy8vaKlpQXNzc0AgJ9//pn1l0DXdZw9exYnT55EKBTC3Nwcbt++7bsGImh5IiIioq2UtIZBpHHcv39fPiY6D6IzkV12ZGTE03j+/PPPN6270PLZFhYWZPqI6MgAwPHjxwEANTU1AICxsTFPYyqTyWB+fh6Kosgy2SKRiExhKkTQ8plMBk1NTWhtbd2VdKRSbfdI/H6vPwjDMNDc3CzT8qqqqnD+/PmylSciIiLaSkkzDGI7VXde99zcHGKxWM72qmK7x+wccL+Rz6Dlsz18+NDz7+z1Ai+//DKAjd1vCtkBZ2JiApFIBOFwGO3t7Whvb4dlWVheXsbU1FRO2lDQ8s+TwcFBrK+vY319HZlMBvX19ay/SENDQxgaGoKqqohEIjh37hxisRhefPFFOatWSnkiIiKirRTdYXCvBRgYGMj5+37ZXnV6ehpPnjzJ+7effvrJ8+9UKgXDMFBfXy8XMmuahnA4jEgkglQqVVL5/ey3334DAJw4cQITExOePf+rq6sBAOvr6we2/lLZto10Oo2pqSmk02lEo1GMjo76dqCDliciIiLyU3SHQeyEpChKzg5AQjwe92xRCSBnbYPfc4stX6hff/0VAPDkyZOcxc2byWQynlmPxsZGpFIphMNhGIaRMyMStPx+tbCwgFAolPeH+8TC71LWY+z3+svFtm3Ytg1VVXH8+PEtOwBByxMRERFlK3oNg9gJqa2tDZFIxPPfF198AQCe7VXFfvDvvfeep5533303b/1BywclFkc3NDQgmUwWXc/Tp0/LXt4wDIyNjeHu3buB1j7spq+//hrAxsySe/app6cHiqLAtm3fzlEhx7vf6w9KVdW8dXV0dMjH3R2YoOWJiIiIClXUDIPYTtW9mNhtdnYWzc3Nnu1VR0ZGEAqFEAqFMDY2BsuyUFFRgeXl5byvEaS8YRg56xAuXbqECxcuYGVlJW/u9sTEBOrq6hCNRpFIJBCPx2FZFoCNWZPFxUXP88TMgHt7VLH1KbCxbWq+mYRCy7vthW1Vs8+piFucVwAYHh6Wx2CaJsbHxxGLxdDe3o633noLFRUVsrF6584d39cq5Hj3e/1Bz6fYqcl9/WiaJtf2DA8PexbEBy1PREREVKiiOgxiByTxy87ZMpmMTIMQKUWZTAZ9fX24cOGCZ9vVkZERvPLKK7IB5a6j0PJHjx7NSVXKri+f3t5ezMzMyEXa7jqyj+3YsWOwbTunXtM0sbS0hMHBwZLKu+2FbVXznVMAOefd7caNG1hdXUU0GpXPnZubw/j4+KadnkKPdz/XH/R8Pnr0SG5RLDiO4xtP0PJEREREhfrd4cOH/7PbQRARERER0d5U0u8wEBERERHR840dBiIiIiIi8sUOAxERERER+WKHgYiIiIiIfLHDQEREREREvthhICIiIiIiX+wwEBERERGRL3YYiIiIiIjIFzsMRERERETkix0GIiIiIiLyxQ4DERERERH5YoeBiIiIiIh8scNARERERES+2GEgIiIiIiJf7DAQEREREZEvdhiIiIiIiMgXOwxEREREROSLHQYiIiIiIvLFDgMREREREflih4GIiIiIiHyxw0BERERERL7YYSAiIiIiIl/sMBARERERkS92GIiIiIiIyBc7DERERERE5IsdBiIiIiIi8sUOAxERERER+WKHgYiIiIiIfLHDQEREREREvthhICIiIiIiX+wwEBERERGRL3YYiIiIiIjI1//3X//1X///bgdBRJuLx+P485//jJdeegk//PDDbocT2H6Pn4iI6CD73eHDh/9TzBMHBgag63rO47Zt47vvvsPg4CBs2y45wIPGMAwcPXoUs7OzPH+7YK+e/7GxMSiKAsdx0NTU5Ftuu+Mvtv5C4yciIqK9p+SUJNu2YZqm/E9VVcRiMfT395cjvgMnkUgglUqhpqZmt0M5kPbq+bcsy/O/frY7/mLrLzR+IiIi2nt+X2oF3333HW7cuCH/bRgGuru7oWkakskkhoaGSn0JogOvra0NjY2NmJiY2O1QirLf4yciIjrIyr7oOZPJYGZmBgBQWVlZ7uqJDqz93tje7/ETEREdVCWvYRgfH/fMMABAV1cXYrEYTNNEW1tbzt9qa2uhqiqAjRSFycnJvDMRqqri8uXLqK6uzlkvkV13Y2MjUqkUxsfH8eOPP+Kdd96BqqpwHAfz8/Po7+/35FyLGLPjF/Xki3274hevuZVIJOL598cff4xQKAQAcBwHlmVhZmamLLM67vO5urqKpqYmeT5nZmbQ29ub93nZ58c0TXzzzTdIp9MlxxTkeIO8v8Wef/E6hRyve82PZVlobW1FT08P6urqoCgKLMvC7du3kclk8j5HyHe/bff1U2z9hcavqqo8X21tbTBN0/P3jo4ONDc359yTxV7/YhZ0bW0NnZ2de2qtChER0V5UckpSPi+++CIAYGlpyfN4X18fwuEwAMhGga7rSCQSqKyszGlI9Pf3Q9M0ABuNLMdx5N9WVlbyvnZ1dTVisRgsy4JpmtB1HeFwGP39/WhtbS3puLYr/qdPn8r6NE2TDUh3+Xx++eUX+byKigroug5d11FXV5e3s1OMfOczGo0CQE6nIfv8KIoiYzp8+HDJHZntOt5iz3+Q4xXvt67rMl0vGo3CNE1UVFRA0zRcuXIF8Xg85znieEWnpFzxF3o+i62/0Pht28b09DTC4TDOnj2b02E4c+YMAMiZy6DxZ6uvr4eiKNA0DTU1NZz5ICIi2kLZOwziCxsA5ubm5OPxeBzhcBi2baO7u1t+0YvRvoaGBs/OSo2NjdA0DY7jIJFIFDwKqOs6hoeHZWNN13XcvHmz5DUV2xl/JpORI8tiVPYvf/nLlg2Z7Aa7ruv44IMPoOs64vF4WUb1dV3Hp59+KusSo83iPRYMw5CN56tXr8rjEaPD8Xi85A7Ddh1vMec/6PGK2KempgAAp0+fls8TI+yqqkLXdXltuY9XzJiUK/7s+gH/81mO+jeLHwBmZ2cRDodl58Adk7iPvvzyy6Liz3b//n00NDRgbW0Ns7Ozmx4DERERlWENQ21tLQYGBjz/KYoC0zQ9DQqxq8rY2JhnBDGTyWB+fh6KovjuvBKJRHxHJ7PZtu1pqJmmibGxMQAbjbRi7VT8pTBNE99//z0A4LXXXitLnZZleRpe4j1VFMVTrr6+HsBGJ9GdVnPr1i04jgNFUdDY2FiWmITtON5ClXq8CwsL8nlipzEAOH78+DZGvbndPJ/pdBqO40DTNE8a09mzZwEA8/PzWw4aFBp/JpNBU1MTWltbmY5ERERUgJJnGFRVzWkMT09P5+Q8v/zyywA2tmVMJBJb1jsxMYFIJIJwOIz29na0t7fDsiwsLy9jamrKd3Tz8ePHOY89fPgQAPDCCy8UdEz57FT8QSSTSdTV1XkaWFuliQRVaH3V1dUAgOXl5Zy/WZYFXddx7NixkmLZieMtVKnHK65JoVwpZEHspfMJbKQcRaNRtLS0yNkDMeOQbyZgr8VPRET0vCq5w+BexCjSDkTjOp/p6Wk8efIk799++uknz79TqRQMw0B9fb1cOKxpGsLhMCKRSEELMcttr8Tf09Mj1xK488krKipyRv+fBwfteLfbXjyfX331FaLRKE6dOgXgWTqSbds56UV7MX4iIqLnVVnXMAwODqKhoQG6rufsuf7rr78CAJ48eZKzOHgz7vxp4NaLhMgAAByySURBVFkOfTgchmEYnr8BGw2GbCdOnAAA/Pbbb1u+nt+o8E7Fnx2zH9FYcufPA1vnim+XpaUl6LqOqqqqnL+Jhd9+C9ULUa7jLXSWY6vzv93HW6rtvn62qr8YmUwGlmVB0zQYhiFT/B48eJBTdq9d/0RERM+zsv4Og23b+PbbbwEAly5d8vxNLPZsaGhAMpks+jWePn266d9VVfXUr+s6GhoaAGzkjWcTqSXiuaIhkm2n4heNzDNnzhS07sGd2mIYBmpra4uOrRT3798HAIRCIRiGIR/v6OiAoihwHKcsaVhBj7fQ91co9Pzv1PEGtd3XT9D6g/r73/8OAPjTn/4k05FGR0d9yxdz/RuGgbGxMdy9e3dH1hYRERHtd2X/HQZVVTE8PAxFUTy7FQHeNAKxbzqwsYB2cXHRs+uJGIl3pxuIrRCBZ3vZZ5c3TROapmFtbQ2O48j8Ztu28f7778tFjmL3JEVRYNs2Hj9+DE3TMD8/L3e/sW0bN2/elCOY2xm/4I7L/RoVFRW4c+eObISK8y/KiLrHx8flCGt2/EFs9nsUovOUve9+vm1GxfFmXwtBBT3eYt5foPDzH+R4DcOQ617cv8XgOA5WVlby/qaFyM8XxLak4lgA5H3udl8/hdZfbPxixyixcNzvPinl+nfPQvT19XFbVSIioi2U/Zee3bMMTU1Nnr/19vair69Pbrcq9k0XjSy3Y8eOwbZtuWuKKGeaJsbHx9HZ2ekbw9DQEF566SXZoJienvZ0FoCNBt4nn3wCy7Kgqio0TcPMzAzu3bsny6iqiqNHj+5o/KZp4tq1azmvcejQIRw5ckSW6+7uxvT0tCzz0ksv5e28uePfbuKH3sSiX3G8fX19JW+pGvR4i3l/xfMKOf9Bjvfo0aOyHkFcF34pUpWVlfI5uq7LkXCx9arfc7f7+im0/mLjt20bc3Nzch3C5ORk3vNTyvV///592dHgtqpERERbK3qGYa/Z6heaiYiIiIgouLLPMBARERER0fODHQYiIiIiIvLFDgMREREREfl6btYwEBERERFR+XGGgYiIiIiIfLHDQEREREREvthhICIiIiIiX+wwEBERERGRr+emw9DV1YWpqSkMDAzsdihEz714PI6BgQHE4/HdDmVf2unPq3K/X42NjSXFv9vXT6nxExEdNL8v9oldXV2IxWIAgL6+PkxMTMi/DQwMQNf1nMeJnjfxeBznzp2DpmkAgLm5OYyMjCCTyeSU1XUd7777Ll5//XWoqgoAsCwLk5OTGBoayimvqipqamrw9OlTWZ+473b7F82TySQURYGmaUin02Wr1zAMHD16FLOzs7Btu2z1Pi/xFGu73q/nJZ7tsteun+2O56AdL9FBUpYZhkgkUo5qiPaVrq4utLe3Q9M0mKYJ27YRCoVw/fp1GIbhKZtMJnHz5k2Ew2GoqirLa5qGRCKBjo6OnPovX76MVCqF8+fP79QhFcyyLM//lksikUAqlUJNTU1Z6y3WXounWNv1fhVrr8WzXfba9bPd8Ry04yU6SIqeYXB78803oaoqe/B0YOi6LmfYPv30UzlK2tfXh3A4jEQikTPLoCgKJicn8dlnn8l7RcwYnDlzJuc1qqqqAABPnjzZzkMpSltbGxobGzmDuE/stfdrr8VDRESbK3mGwbIsKIqCt99+uxzxEO0LZ8+eBbCRguROqejv74fjONB13TPLMDQ0hLa2NvT29no61nNzcwCAV199Nec1XnnlFU+ZvYaNvf1lr71fey0eIiLyV/IMw/fff4+XXnoJdXV1efOws3V1daG2tlbmcJumiW+++SYnj3VqagoAMDw8LBfGXbt2DRcvXkQoFIJt2+ju7oZpmjmvkUwmEY/HoSgKHMfB/Pw8+vv7PQ01sc4C2Oj0tLa2oqenB3V1dVAUBZZl4fbt2zmjxNnxb5aDLhiGge7ubqytraGzs3NXZmIaGxuRSqUwPj6OH3/8Ee+88w5UVfU9P0Kh75df+a3OT2NjI2KxGE6ePAlFUQBsNJDHx8dlg0LELvL2s/8NPLteIpFI4PLCxx9/jFAoBABwHAeWZWFmZiZv7CdPngQALCwseB63bRuWZUHXddTU1Hiun3zX6pEjR/LWA0Cui5idnc177kohZjbGx8dx48YN+Xi+cyW47xkh+/n5Xmer60e8plsqlcp5LF/qY5DrTVVVXL58GdXV1TnH4T7eUuIpRiGfV8Xcv8W8X4Xcj/nib2pqkvHMzMygt7c3p1yQeNzHu7q6WlD92x1/oZ8PB+16PmjHS3RQlSUl6cGDB4hGo9B1PW+jSBDpGsDGDa4oCnRdh67rOHz4cN4PidOnT2NmZgbRaBRXrlzBgwcPYFkWNE3D+fPnc15PURQkEglYlgXHcaBpGsLhMPr7+z2N9ZWVFQAbqSWapiGZTCIajcI0TVRUVEDTNFy5csWzi0d2/OL5iUQClZWVvl/E9fX1coFfTU3Nro6sVVdXIxaLwbIsmKYJXdfl+WltbfWUDfp+BT0/HR0daG5uBvCsoV1RUYFQKIRQKIRjx45haGgIP/30k+d5J06cAPCsQd3Y2Oh5zaDlhV9++UU+VlFRIY+1rq4up/H8wgsvAAAePnwIVVXR0tKCR48eIZ1OY2lpCbqu49ChQ9iMYRhIJpNwHAcjIyOev4kYbdveM6l+4p4BNs6P+JL3U+j18/TpU3neNU2THXbHcQLVD2x+vfX398trILt+97EVG08xCv28EoLcv0Hfr0Lvx2zxeBxra2synmg0CgA5je6g8fgdr1/92x1/oZ8PB+16PmjHS3RQlaXDMDo6img0mrcBLxiGIT8crl69KkdexYd8PB7P+2EuRoai0SgeP36M3t5edHV1QdM0mePtpmmaJ6dcVVV89tln0DQNLS0tuHXrFoBnXwZipPn06dMyLlVVkU6noaqq7ATF43GEw+GcmQ0xe9DQ0IDBwcG8jbv79++joaEBa2tr2zJaHISu6xgeHpbnWtd13Lx5U3aaxONB36+g50fXdfnl7o5HvMaZM2dkHe4vaQA4dOiQ7DS6/fbbb0WVF7IbCLqu44MPPoCu64jH476zKi0tLfJYfv7557xl3HWePXsWJ0+eRCgUwtzcHG7fvp1z34hOzvLy8qb17ST3+XHvkpZPkOsnk8nIv4tR6L/85S+bdqyDXm+NjY3QNA2O4yCRSGzaCSsmnmIV+nklFHr/AsHeryD342bxiNHdurq6nLJB4nHX7z4/fvXvdPziufk+Hw7a9XzQjpfooCrLLkmmacKyLNTW1vqWqa+vB7AxPexO07h16xYcx4GiKHJUtVBilDc7FnfDzrZtfPvttwCepZHks7CwIOOybVt+gB0/fhwA5C4LY2Njni+eTCaD+fl5KIriuxNDJpNBU1MTWltbd3202LZtz5epaZoYGxsDsNFpEoK+X0HPj9j5Z3p6OqejeOvWLXR2dnpe13EcOSJZXV2N77//HsDGF8mxY8cAeBvXQcvnY5qmfN5rr73mW26rmQQ3wzDQ3NwsUxuqqqry7oL0hz/8oaAY96rtuN/dSrkfI5FIQaPbOyHo51Wh929QQe9HwbIsT3nRKBPpQKWyLMtzfvzq3434C/18KMTzcj0X6qAdL9HzoCwzDAAwOTmJRCLh2wiorq4GkL8BJHK+RUOu3B4+fAggfwcju4yQnYLy8ssvA9jYpi2RSJQ5wp3z+PHjnMfynZ+g71fQ87PVDkDZHSvxmsDGl/mPP/4Iy7Jw5MgRVFZWAgBWV1eLLg9s5DLX1dV58mMLmcYeHBzE+vo61tfXkclkZGM5n6GhIQwNDUFVVUQiEZw7dw6xWAwvvviiZwRTnJ+9uuB5K9t9vwe93iYmJhCJRBAOh9He3o729nZYloXl5WVMTU3tqdHHzT6vCr1/gwp6PwrbneZRaP07EX+xnw+FeJ6v53wO2vESPQ/K1mH48ssvkUgk9uRCIpHekZ2CUozp6WnfL6Xs3PmDaLvOj3jvDMOApmn417/+hSdPnnhG9tx5rEHL9/T0yNxld75rRUVF3tFGUf+JEycwMTHhSR0RjeX19XXf47FtG+l0GlNTU0in04hGoxgdHfXk3gLApUuXcOHCBfk8kWalaRoGBgZ29cfb9oIg11sqlYJhGKivr5cLJ8WagUgkkrMocreU8/OKyiPo50OxnsfreTMH7XiJ9rOydRhs28b09DTefPNNrK2t5fxdLAT1W3cAeBtw5XTq1CkAwD/+8Y+i6/j1118BbIxgbbbLyF4nGpxu+RooQd+voOdneXkZoVBINq4LLS9G9yYmJhAKhVBVVSVHVt3rQ4KWF40Bd7494J9rvbCwgFAolDdtJMjuRmJRs6qqOH78OEzT9GzHmr3uQhALiMutXLN8pd7v4pr0U+z96M5vBp7lrIfDYRiGkTdtpZB4ymmzz6tC79+ggt6Pe812xx/08yHbQbueD9rxEh0EZVnDIMzOzsrdgLLdv38fABAKhTwNoo6ODrmdYLmnFVVVRV9fH3Rdh23b+PLLL4uuSyyObmhoQDKZDPRcwzAwNjaGu3fv7nrupaqqnvh1XUdDQwMA79aeQd+voOfn3r178vW7uroKjr+yslKmF6yurnrSMPKlHQQt705NMwzDd13O119/DWDj/Lh30urp6YGiKLBt2/Plpapq3ve+o6NDPi46GJlMBpFIJO9/4+PjADbyp/1m84Jcb+4GlqqqsmFUqmLvd9GJOHPmzKaxl3I/uj19+nTTvxcaj1ux93shn1eF3r9BFXs/7hU7FX+hnw/CQbuen4fjJaL8yjbDAADpdFruD54tk8lgenoa4XAY169fl9ssis6F3w40QYlUDQByBNa2bdy8eVM2EA3DyMmbFKkfKysreffgnpiYQF1dHaLRKBKJBOLxOCzLArAx2ru4uOi7N/he2lZV7PgUjUblD4wBG+dodHRUlgv6fgU9P6ZpYnh4GIlEArFYDA0NDbI8sPHeuRvEc3NzOeVWVlag6zocx8nZASVoebGl4vDwsPwxQk3TMD4+jlgshlgshtraWty8eROZTAamacq/tbe346233vJsFXnnzh1P/WInJXc6g9jyD9jY2aVcC+ILud7u3buHhoYG6LqOdDqNx48fQ9M0zM/PQ9M0+bg4XpG/LYiR7traWnm/ue+dYu/30dFR1NXVQdM0+V6I17tz5448lqDXmxiJdJ9/dzyWZeUdnSw0nqDnXyjk88qt0Ps36PsV9H4MKmg8QW13/EE/H4SDdj0/D8dLRPmVtcMAPPtNhnxSqRS6urrwxhtvyC860zTx17/+teQbd3V1Ve6+4q77wYMHGB0d9Xz5Hj16NCedwy/1w623txczMzPyh4HcdSwuLvo+by9tqwpsLLx955135DZ1fj/8FPT9Cnp+hoaGsLKykre8WBib73c2xKjRxMQEUqkUFEXxTccotHx3dzc6Ozvx5ptvyhFe8aNSIuVAVVUcPXpUPufGjRtYXV2Vv0EC+P9I1KNHj2SjQ3AcZ8sflSpGIdebaZr45JNPcOnSJWiahkOHDmFmZgZfffWV3A7VfbyVlZV5U6D8Zk6A4u530zTlDzS6rwnHceSP3AlBrrdjx47Btu2c+9w0TSwtLWFwcLDkeIRCzn+Qz6tshdy/xbxfxdyPhSomnqC2M/5iPh+Ag3M9P0/HS0T5/e7w4cP/2e0gaPtt9gu+RLS38f4lIqLdVNY1DERERERE9Hxhh4GIiIiIiHyxw0BERERERL64hoGIiIiIiHxxhoGIiIiIiHyxw0BERERERL7YYSAiIiIiIl/sMBARERERka890WGYmprC1NTUtpUnIiIiIqLi/L4clXz88ccIhUIAgC+++AK3bt0qR7W0y1RVxdtvv41oNApN0wAAfX19mJiY8H1OPB7HuXPnZPm5uTmMjIwgk8mUNTbDMPCnP/0Jx44dg67rGB8fx40bN3Y0nqDnxzAMnD9/Hm+++SYURZHxjI+P532Oqqq4fPkyamtroaoqAMCyLHz//fd5jzWooPEELU9ERETPh7J0GEKhEBzHgaIoOHnyZDmqpF1mGAauX78e6DldXV2IxWIAANM0UVFRgVAohFAohKtXr5atkX7t2jXoui4fsywLq6urOxpP0POTTCaRSCQAAI7j5MQDwNPoVlUV/f39siNimiYURYGmadA0Da+88gpSqVTR8QeNJ2h5IiIien6UnJIUj8cBADMzM7AsSzYeaH87evQoHMfB9PQ0rl69CtM0Ny2v67psnH/66adoa2tDPB7H9PQ0AMjGZilEI1rXddi2jeHhYcTjcbS2tmJoaGhH4wl6fv77v/8bwMYMXFNTU048IlahpaUFmqbBsizE43G0tbWhtbUVfX19AIBwOAzDMIqOP2g8QcsTERHR86PkDsMf//hHAMAPP/yAxcVFAM86EbR/zc7OoqmpCalUqqCR+LNnzwLYSFFJp9Py8f7+fjiOA13XS2rgAkBnZyc0TYNpmnj//fcxNDQE27Z3JZ6g5yeVSqGvry8nXU+sxcmemTt16hQAYHJy0nOMExMTspFeX19fdPxB4wlanoiIiJ4fJackiYZNOp1GPB5HNBqVnYhshmHg4sWLchZibm4OH330kW/dQcoPDAzINBXLstDa2oqenh7U1dVBURRYloXbt2/nNO66urpycsQnJydzRqyBZznl1dXVnpQYYCNlpK2traTy7uPu7u7G2toaOjs7fRvF2ynoa4oG48LCQk49lmVB13XU1NQUnQak6zrC4TAcx0F3d/eW8W13PMW8J5ul7Ig1AdlWVlZyHnvy5Eng1y5HPMXET0RERPtfSR0GXdehqqpMx5iamkJ7e7vsRLiJRrCiKHAcB5ZloaqqCh9++GHeuoOWFw0rXdehaRqSySSi0ajMtdY0DVeuXPHMfvT19SEcDgOAPAZd15FIJFBZWZmzsNSdU25ZFhzHyXn9UsoL9fX1Ml+9pqZmX+SGv/DCCwCAhw8fQlVVtLS04NGjR0in01haWoKu6zh06FDR9YsZg/n5eZw4cQIffvghTp48ifX1dSwuLqK/v9/TiN/ueMrlyJEjAOCb0iT+7lZVVbVr8ZRanoiIiPafkjoMohG3tLQEYGPU1TRN6LoOXdc9jYiLFy9CURQ5SyAadyInO1vQ8r29vQCepUicPn1aLmxVVRXpdBqqqsq44vE4wuEwbNtGd3e3jFV0VBoaGjA4OChft7GxEZqmwXEcJBKJLUeYg5Z3u3//PhoaGrC2tobZ2dmCn7dXtLS0oLm5GQDw888/l6XOP/zhDwCAf//73+ju7sb6+jrW1tagaRpUVcVnn32G999/P+953o54yuWtt94CADx48MDz+K+//goAOHfuHKampuRxJZPJbU3/8YunXOWJiIho/ylpDYNouNy/f18+JjoPojORXXZkZMTTqPv88883rbvQ8tkWFhZkuonoyADA8ePHAQA1NTUAgLGxMU/HJpPJYH5+HoqiyDLZIpGITGEqRNDymUwGTU1NaG1t3ZV0pFJtx8j9yy+/DGAjBe6TTz6Ri52vXr0Kx3HkLMJOxVMOjY2N0HUdjuNgdHTU87fPP/8cjuNA0zSk02ncvXsXY2NjiEajmJ+f3/F4ylGeiIiI9qeSZhjEdqruPPC5uTnEYrGcUVCR45ydM+6XyhC0fLaHDx96/p29XkA0QBOJREE75kxMTCASiSAcDqO9vR3t7e2wLAvLy8uYmprKSRsKWv55Mjg4iPX1dayvryOTyZS0ODfbgwcPPOcuk8ng22+/RSwWk7MQOxlPsQzDwJ///GcAyLt42zRNXLt2DRcvXsTJkyfx0ksvYX5+Hv39/ejv7wewca/tVDyllv+/7d2/a1PrHwfwj9yL0B8iWisUpCA4dChkTANSG1ysCHawCF00W9XRpU69Tuo/IC62tlMFly5tB0E6pREdVJCI+IMOFcwgcq+Ck9+hJN+k6bkkaXtr5fWCDm2f8+ST0wzPu+c8nwMA7F0tB4bqvQD37t2r+/1eaa+6srKSuIn048ePNd9PTExEJpOJwcHBykbm3t7eGBgYiKGhobq++M2O38t+/PgREREnTpyIpaWlmm46x48fj4iIb9++bfl1CoVC3c/ev38fEf8Pgf9lPa2o3p8zMzNT08WpWj6frwvM1be6bVfobLSeVscDAHtby4Gh3Ampvb29rgNQ2ejoaN1iYuPehqRjWx3fqPI94l++fGnqqbkbF3FnzpyJiYmJSl/8jQu8ZsfvVW/fvo1UKrXp/fXljd9b2Y9R/nulUqm6hXL5s1i9kXyn62lV9cPkZmZmNu3GlaS7uzvGxsYiImJ5eXlX6tlK/QDA3tTyHoZyJ6Tx8fEYGhqq+Xr06FFERE171fLtE1euXKmZ5/Lly5vO3+z4ZpU3R586dSpyuVzL83z9+nXbx2cymVhYWIjZ2dmm9j7spsePH0fE+oK++urT5ORktLe3R6lUSgxHjbzfN2/eRMT636v6+QmZTCbS6XRE1F592Ol6mpXJZGJ2djaGh4djdXU1bty40fBiu7u7O3K5XMzMzFQe5vZvIbeR+putZyv1AwB7W0tXGMrtVKs3E1d7/vx5XLhwoaa96tzcXKRSqUilUrGwsBCrq6vR1dUVa2trm75GM+MzmUzdPoSxsbEYGRmJT58+VTooVVtaWop0Oh3ZbDYuXboUo6Ojsbq6GhHrV03evXtXc1z5ykB1e9Ry69OI9bapm11JaHR8tV+hrerGc1quu3xeI9b/w1x+D8ViMRYXF2N4eDiuXbsWp0+fjq6ursqC9f79+4mv1cj7nZ6ejmw2G729vXHr1q2aNrgR67eWVR+30/U0e34GBwcrY9ra2jbdO1MoFGoW4ZOTk9Hf31+z6H/y5EncvXs3sfZG62+2nlbqBwB+Dy0FhnIHpPKTnTfK5/NRKpVq2pjm8/m4fft2jIyM1LRdnZubi0OHDlUWI9VzNDr+4MGDdbcqbZxvMzdv3oxCoVDZpF09x8b31tPTE6VSqW7eYrEYHz58iKmpqS2Nr/YrtFXd7JxGRN15r3bnzp34/PlzZLPZyrEvXryIxcXFfw09jb7f69evx9WrV6O/v7/mIX1Pnz6tewLxTtfTyvkp6+7u3vQ//+UOY2WHDx+Ojo6Oymdmfn6+oU3/zX5+Gq2n1fEAwN62r7Oz8+duFwEAAPyatvQcBgAA4PcmMAAAAIkEBgAAIJHAAAAAJBIYAACARAIDAACQSGAAAAASCQwAAEAigQEAAEgkMAAAAIkEBgAAIJHAAAAAJBIYAACARAIDAACQSGAAAAASCQwAAEAigQEAAEgkMAAAAIkEBgAAIJHAAAAAJBIYAACARAIDAACQSGAAAAASCQwAAEAigQEAAEgkMAAAAIkEBgAAIJHAAAAAJBIYAACARAIDAACQSGAAAAASCQwAAEAigQEAAEgkMAAAAIkEBgAAINGfrR6Yy+Wio6MjHj58GKVSaTtrAgAAfhEtB4ajR4/G8PBwnD17Nl6+fBkPHjyIYrG4nbUBAAC77I/9+/f/1cqBBw4ciCNHjkRPT08cO3Yszp07FwMDA9HW1havX7/e7joBAIBdsK+zs/PnVibo6+uLixcvRjqdjvb29oiIKJVKsby87HYlAADY47YcGKqNjo7GyZMnI5VKRUREsViM8fHx7ZoeAAD4j21rl6RXr17F2tpafP/+fTunBQAAdknLm56r5XK5SKfT0dfXV/nZyspKzM/Pb8f0AADALmk5MCTtXXj27FlMTU3ZuwAAAL+BlgPD+fPnI5vNRsT6XoVCoRDT09PbVhgAALD7/vz7n39i38+I2PczOjsPNHVw+bajfD6/M9UBAAC76n8fdQ/FgF3RqwAAAABJRU5ErkJggg==;" vertex="1" parent="1">
          <mxGeometry x="-260" y="150" width="268.35" height="150" as="geometry" />
        </mxCell>
        <mxCell id="y-b941aZfHmB1AVWtn2H-7" value="&lt;div class=&quot;ewa-rteLine&quot; style=&quot;color: rgb(0, 0, 0); font-family: Calibri; font-size: 14.6667px; font-style: normal; font-variant-ligatures: normal; font-variant-caps: normal; font-weight: 400; letter-spacing: normal; orphans: 2; text-align: center; text-indent: 0px; text-transform: none; widows: 2; word-spacing: 0px; -webkit-text-stroke-width: 0px; background-color: rgb(255, 255, 255); text-decoration-thickness: initial; text-decoration-style: initial; text-decoration-color: initial;&quot;&gt;10.60.128.59:7080&lt;/div&gt;&lt;div class=&quot;ewa-rteLine&quot; style=&quot;color: rgb(0, 0, 0); font-family: Calibri; font-size: 14.6667px; font-style: normal; font-variant-ligatures: normal; font-variant-caps: normal; font-weight: 400; letter-spacing: normal; orphans: 2; text-align: center; text-indent: 0px; text-transform: none; widows: 2; word-spacing: 0px; -webkit-text-stroke-width: 0px; background-color: rgb(255, 255, 255); text-decoration-thickness: initial; text-decoration-style: initial; text-decoration-color: initial;&quot;&gt;10.60.128.60:7081&lt;/div&gt;" style="text;whiteSpace=wrap;html=1;" vertex="1" parent="1">
          <mxGeometry x="674" y="70" width="150" height="60" as="geometry" />
        </mxCell>
        <mxCell id="y-b941aZfHmB1AVWtn2H-8" value="POECWWA034 (Test)&lt;br&gt;10.60.129.22" style="text;html=1;align=center;verticalAlign=middle;resizable=0;points=[];autosize=1;strokeColor=none;fillColor=none;" vertex="1" parent="1">
          <mxGeometry x="60" y="273" width="140" height="40" as="geometry" />
        </mxCell>
        <mxCell id="y-b941aZfHmB1AVWtn2H-9" value="&lt;span style=&quot;color: rgb(255, 255, 255); font-family: IBMPlexMono, Cousine, monospace; font-size: 12px; font-style: normal; font-variant-ligatures: normal; font-variant-caps: normal; font-weight: 400; letter-spacing: normal; orphans: 2; text-align: start; text-indent: 0px; text-transform: none; widows: 2; word-spacing: 0px; -webkit-text-stroke-width: 0px; background-color: rgb(33, 33, 33); text-decoration-thickness: initial; text-decoration-style: initial; text-decoration-color: initial; float: none; display: inline !important;&quot;&gt;http://poecwwa034.uiotest.bpichinchatest.test/ScoreCentroAutorizador/services/sendTransaction&lt;/span&gt;" style="text;whiteSpace=wrap;html=1;" vertex="1" parent="1">
          <mxGeometry x="340" y="10" width="560" height="40" as="geometry" />
        </mxCell>
      </root>
    </mxGraphModel>
  </diagram>
  <diagram id="fk3pDxffTRrA01CPxwAW" name="PÃ¡gina-2">
    <mxGraphModel dx="1902" dy="521" grid="1" gridSize="10" guides="1" tooltips="1" connect="1" arrows="1" fold="1" page="1" pageScale="1" pageWidth="827" pageHeight="1169" math="0" shadow="0">
      <root>
        <mxCell id="0" />
        <mxCell id="1" parent="0" />
        <mxCell id="M9Z6zsnTARD7m9GBgmHz-4" style="edgeStyle=orthogonalEdgeStyle;rounded=0;orthogonalLoop=1;jettySize=auto;html=1;entryX=0;entryY=0.5;entryDx=0;entryDy=0;" edge="1" parent="1" source="M9Z6zsnTARD7m9GBgmHz-1" target="M9Z6zsnTARD7m9GBgmHz-2">
          <mxGeometry relative="1" as="geometry" />
        </mxCell>
        <mxCell id="M9Z6zsnTARD7m9GBgmHz-1" value="DataPower&lt;br&gt;" style="rounded=1;whiteSpace=wrap;html=1;" vertex="1" parent="1">
          <mxGeometry x="160" y="190" width="120" height="60" as="geometry" />
        </mxCell>
        <mxCell id="M9Z6zsnTARD7m9GBgmHz-5" style="edgeStyle=orthogonalEdgeStyle;rounded=0;orthogonalLoop=1;jettySize=auto;html=1;fillColor=#f8cecc;strokeColor=#b85450;" edge="1" parent="1" source="M9Z6zsnTARD7m9GBgmHz-2" target="M9Z6zsnTARD7m9GBgmHz-3">
          <mxGeometry relative="1" as="geometry" />
        </mxCell>
        <mxCell id="M9Z6zsnTARD7m9GBgmHz-2" value="IBM10" style="rounded=1;whiteSpace=wrap;html=1;" vertex="1" parent="1">
          <mxGeometry x="400" y="190" width="120" height="60" as="geometry" />
        </mxCell>
        <mxCell id="M9Z6zsnTARD7m9GBgmHz-3" value="Spartan CA" style="rounded=1;whiteSpace=wrap;html=1;" vertex="1" parent="1">
          <mxGeometry x="640" y="190" width="120" height="60" as="geometry" />
        </mxCell>
        <UserObject label="https://datapowertest.uio.bpichincha.com:7181/IntegrationBus/soap/WSCentroAutorizaciones001" link="https://datapowertest.uio.bpichincha.com:7181/IntegrationBus/soap/WSCentroAutorizaciones001" id="M9Z6zsnTARD7m9GBgmHz-6">
          <mxCell style="text;whiteSpace=wrap;" vertex="1" parent="1">
            <mxGeometry x="-270" y="150" width="560" height="40" as="geometry" />
          </mxCell>
        </UserObject>
        <mxCell id="M9Z6zsnTARD7m9GBgmHz-8" value="&lt;span style=&quot;color: rgb(255, 255, 255); font-family: IBMPlexMono, Cousine, monospace; font-size: 12px; font-style: normal; font-variant-ligatures: normal; font-variant-caps: normal; font-weight: 400; letter-spacing: normal; orphans: 2; text-align: start; text-indent: 0px; text-transform: none; widows: 2; word-spacing: 0px; -webkit-text-stroke-width: 0px; background-color: rgb(33, 33, 33); text-decoration-thickness: initial; text-decoration-style: initial; text-decoration-color: initial; float: none; display: inline !important;&quot;&gt;http://poecwwa034.uiotest.bpichinchatest.test/ScoreCentroAutorizador/services/sendTransaction&lt;/span&gt;" style="text;whiteSpace=wrap;html=1;" vertex="1" parent="1">
          <mxGeometry x="640" y="130" width="560" height="40" as="geometry" />
        </mxCell>
        <mxCell id="o0eg70ElJ9mB2aBIQrrp-1" value="&lt;div class=&quot;ewa-rteLine&quot; style=&quot;color: rgb(0, 0, 0); font-family: Calibri; font-size: 14.6667px; font-style: normal; font-variant-ligatures: normal; font-variant-caps: normal; font-weight: 400; letter-spacing: normal; orphans: 2; text-align: center; text-indent: 0px; text-transform: none; widows: 2; word-spacing: 0px; -webkit-text-stroke-width: 0px; background-color: rgb(255, 255, 255); text-decoration-thickness: initial; text-decoration-style: initial; text-decoration-color: initial;&quot;&gt;10.60.128.59:7080&lt;/div&gt;&lt;div class=&quot;ewa-rteLine&quot; style=&quot;color: rgb(0, 0, 0); font-family: Calibri; font-size: 14.6667px; font-style: normal; font-variant-ligatures: normal; font-variant-caps: normal; font-weight: 400; letter-spacing: normal; orphans: 2; text-align: center; text-indent: 0px; text-transform: none; widows: 2; word-spacing: 0px; -webkit-text-stroke-width: 0px; background-color: rgb(255, 255, 255); text-decoration-thickness: initial; text-decoration-style: initial; text-decoration-color: initial;&quot;&gt;10.60.128.60:7081&lt;/div&gt;" style="text;whiteSpace=wrap;html=1;" vertex="1" parent="1">
          <mxGeometry x="400" y="270" width="120" height="60" as="geometry" />
        </mxCell>
        <UserObject label="10.60.129.22" link="10.60.129.22" id="o0eg70ElJ9mB2aBIQrrp-2">
          <mxCell style="text;whiteSpace=wrap;" vertex="1" parent="1">
            <mxGeometry x="650" y="280" width="100" height="30" as="geometry" />
          </mxCell>
        </UserObject>
        <mxCell id="o0eg70ElJ9mB2aBIQrrp-3" value="Sentinel" style="rounded=1;whiteSpace=wrap;html=1;" vertex="1" parent="1">
          <mxGeometry x="640" y="400" width="120" height="60" as="geometry" />
        </mxCell>
      </root>
    </mxGraphModel>
  </diagram>
</mxfile>
